<svg xmlns="http://www.w3.org/2000/svg" version="1.1" xmlns:xlink="http://www.w3.org/1999/xlink" xmlns:svgjs="http://svgjs.dev/svgjs" viewBox="0 0 7.549382666015626 2.971762060546875"><g transform="matrix(0.7721822618334793,0,0,0.7721822618334793,1.4402285977566835,0.8683282663721125)"><rect width="8.426144726562502" height="8.426144726562502" x="-1.1898706521876132" y="-3.413322363281251" fill="#343432"></rect><g transform="matrix(1,0,0,1,0,0)" clip-path="url(#SvgjsClipPath79312)"><g clip-path="url(#SvgjsClipPath79307a8fff5df-4d4f-4c41-bf12-6d597af57344)"><path d=" M 2.480176200681995 0.5812478741711866 C 2.5172348930900403 0.5385329881642069 2.5477469714399272 0.5104594476628768 2.569622983176772 0.488583435926032 C 2.569855706705887 0.48846707416147445 2.5699670092632902 0.4883507123969167 2.5699670092632902 0.4883507123969167 L 2.834386471202742 0.24170930439901717 C 2.8926988928676063 0.18732282748618623 2.895931726239448 0.09598896072271312 2.841545249326617 0.03767653905784907 C 2.787275134178344 -0.02051952084245734 2.6959412674148706 -0.023752354214299137 2.637628845750007 0.030634122698531774 L 2.263864739576414 0.37911737072017887 L 2.259938794824381 0.3826992893856937 C 2.2468910995724563 0.3948262089354663 2.236615849841297 0.4089110416541007 2.2291079864237493 0.42392170928204226 C 2.228298513279 0.42554065557154047 2.2276054018988085 0.42703818088932627 2.226912290518617 0.42865712717882437 C 2.220213900245818 0.4434350712776503 2.2160552319646696 0.4591388502857831 2.214557706646884 0.4750753528230312 C 2.214208621353211 0.4794616854261406 2.21398095703125 0.4838530772364044 2.21398095703125 0.4882394098395137 L 2.21398095703125 0.48835577160407123 C 2.21398095703125 0.4927421042071806 2.2142136805603654 0.49713349601744455 2.214557706646884 0.5015198286205538 C 2.2160552319646696 0.5174563311578018 2.2200975384812605 0.5331601101659347 2.226912290518617 0.5479380542647605 C 2.2276054018988085 0.5495570005542587 2.228298513279 0.5510545258720447 2.2291079864237493 0.552673472161543 C 2.2351132653163566 0.5647953325041608 2.2430815165849807 0.5763455024382995 2.252780016700506 0.5867371139340163 C 2.256356876158866 0.5905466969214919 2.2600551565889386 0.5941286155870065 2.263864739576414 0.597477810723406 L 2.4548498096656575 0.7756428498826855 C 2.4148972507651343 0.6923885369452394 2.437855932833081 0.6300236903494749 2.480176200681995 0.5812529333783409 Z" fill="#d795ff" transform="matrix(1,0,0,1,0,0)" fill-rule="nonzero"></path></g><g clip-path="url(#SvgjsClipPath79307a8fff5df-4d4f-4c41-bf12-6d597af57344)"><path d=" M 2.5885595955567466 0.5055570759299901 C 2.578861095441221 0.512715854053865 2.565120288809105 0.5235678534006578 2.5502259829457214 0.5376577453264471 C 2.503924119066072 0.5809594993633698 2.447119341133303 0.6320878468685855 2.457733557743826 0.7186913549424312 C 2.4619883509609135 0.7533975160235493 2.4811728644914677 0.8002305966544401 2.4811728644914677 0.8002305966544401 L 2.6376339049571613 0.9460673020953019 C 2.665459544307912 0.971929969070036 2.7006766853116533 0.98475 2.736010188079952 0.98475 C 2.774576524220092 0.98475 2.8131428603602324 0.9693953062855405 2.8415503085337717 0.9389085239714268 C 2.8959367854466027 0.8805961023065627 2.892703952074761 0.7892622355430898 2.8343915304098966 0.7348757586302588 L 2.5885595955567466 0.5055570759299903 Z" fill="#ffffff" transform="matrix(1,0,0,1,0,0)" fill-rule="nonzero"></path></g><g clip-path="url(#SvgjsClipPath79307a8fff5df-4d4f-4c41-bf12-6d597af57344)"><path d=" M 3.4142070255793753 0.34164888253260434 C 3.3771483331713306 0.29893399652562463 3.3466362548214432 0.2708604560242946 3.3247602430845986 0.2489844442874498 C 3.3245275195554833 0.24886808252289216 3.32441621699808 0.24875172075833446 3.32441621699808 0.24875172075833446 L 3.0599967550586284 0.002110312760434996 C 3.0016843333937646 -0.052276164152395915 2.9984515000219227 -0.143610030915869 3.052837976934754 -0.2019224525807331 C 3.1071080920830267 -0.2601185124810395 3.1984419588465 -0.2633513458528813 3.2567543805113637 -0.2089648689400504 L 3.6305235458921112 0.13951837908159653 L 3.6344494906441445 0.14310029774711136 C 3.647497185896069 0.15522721729688393 3.657772435627228 0.16931205001551847 3.6652802990447766 0.1843227176434598 C 3.6660897721895256 0.18594166393295808 3.6667828835697165 0.18743918925074393 3.6674759949499083 0.18905813554024203 C 3.674174385222707 0.20383607963906797 3.678333053503856 0.21953985864720077 3.6798305788216417 0.23547636118444892 C 3.6801796641153146 0.2398626937875582 3.6804073284372754 0.24425408559782202 3.6804073284372754 0.2486404182009313 L 3.6804073284372754 0.24875677996548906 C 3.6804073284372754 0.2531431125685983 3.68017460490816 0.2575345043788622 3.6798305788216417 0.2619208369819715 C 3.678333053503856 0.2778573395192195 3.674290746987265 0.2935611185273523 3.6674759949499083 0.3083390626261782 C 3.666782883569717 0.30995800891567643 3.6660897721895256 0.31145553423346234 3.6652802990447766 0.31307448052296055 C 3.659275020152169 0.3251963408655784 3.6513067688835448 0.33674651079971724 3.6416082687680196 0.347138122295434 C 3.6380314093096593 0.3509477052829096 3.634333128879587 0.3545296239484244 3.6305235458921112 0.35787881908482383 L 3.439538475802868 0.5360438582441032 C 3.479491034703391 0.4527895453066571 3.456532352635445 0.39042469871089286 3.4142120847865307 0.3416539417397589 Z" fill="#ffffff" transform="matrix(1,0,0,1,0,0)" fill-rule="nonzero"></path></g><g clip-path="url(#SvgjsClipPath79307a8fff5df-4d4f-4c41-bf12-6d597af57344)"><path d=" M 3.3058236307046243 0.2659631434985625 C 3.31552213082015 0.2731219216224375 3.329262937452266 0.2839739209692301 3.3441572433156495 0.2980638128950193 C 3.3904591071952983 0.34136556693194214 3.4472638851280673 0.39249391443715803 3.4366496685175445 0.47909742251100346 C 3.4323948753004574 0.5138035835921215 3.4132103617699032 0.5606366642230123 3.4132103617699032 0.5606366642230123 L 3.2567493213042096 0.7064733696638739 C 3.2289236819534586 0.732336036638608 3.1937065409497176 0.745156067568572 3.158373038181419 0.745156067568572 C 3.1198067020412785 0.745156067568572 3.081240365901138 0.7298013738541125 3.0528329177275992 0.699314591539999 C 2.998446440814768 0.6410021698751349 3.00167927418661 0.5496683031116616 3.0599916958514743 0.4952818261988308 L 3.3058236307046243 0.26596314349856226 Z" fill="#d795ff" transform="matrix(1,0,0,1,0,0)" fill-rule="nonzero"></path></g></g><g><path d=" M 0.246 0.726 Q 0.231 0.725 0.20800000000000002 0.724 Q 0.185 0.723 0.156 0.723 L 0.085 0.724 Q 0.066 0.725 0.032 0.725 Q 0.03 0.725 0.03 0.719 Q 0.03 0.713 0.032 0.713 Q 0.066 0.713 0.0815 0.708 Q 0.097 0.703 0.10300000000000001 0.6885 Q 0.109 0.6739999999999999 0.109 0.644 L 0.109 0.18099999999999994 Q 0.109 0.1509999999999999 0.10350000000000001 0.137 Q 0.098 0.123 0.082 0.11749999999999994 Q 0.066 0.11199999999999999 0.033 0.11199999999999999 Q 0.031 0.11199999999999999 0.031 0.10599999999999998 Q 0.031 0.09999999999999998 0.033 0.09999999999999998 L 0.08600000000000001 0.10099999999999998 Q 0.13 0.10299999999999998 0.156 0.10299999999999998 Q 0.196 0.10299999999999998 0.23700000000000002 0.09999999999999998 Q 0.28700000000000003 0.09799999999999998 0.304 0.09799999999999998 Q 0.406 0.09799999999999998 0.485 0.138 Q 0.5640000000000001 0.17799999999999994 0.6075 0.24699999999999994 Q 0.651 0.31599999999999995 0.651 0.40199999999999997 Q 0.651 0.499 0.606 0.5735 Q 0.561 0.648 0.485 0.6885 Q 0.40900000000000003 0.729 0.318 0.729 Q 0.28700000000000003 0.729 0.246 0.726 M 0.4305 0.6759999999999999 Q 0.484 0.643 0.514 0.5785 Q 0.544 0.514 0.544 0.424 Q 0.544 0.33799999999999997 0.5155 0.26849999999999996 Q 0.487 0.19899999999999995 0.435 0.15849999999999997 Q 0.383 0.118 0.314 0.118 Q 0.272 0.118 0.249 0.123 Q 0.226 0.128 0.2155 0.14149999999999996 Q 0.20500000000000002 0.15499999999999992 0.20500000000000002 0.18299999999999994 L 0.20500000000000002 0.633 Q 0.20500000000000002 0.6739999999999999 0.226 0.6915 Q 0.247 0.709 0.308 0.709 Q 0.377 0.709 0.4305 0.6759999999999999 M 1.07498388671875 0.6619999999999999 Q 1.07698388671875 0.6619999999999999 1.07948388671875 0.6659999999999999 Q 1.0819838867187501 0.6699999999999999 1.07998388671875 0.6719999999999999 Q 1.04398388671875 0.706 1.00698388671875 0.7215 Q 0.96998388671875 0.737 0.92598388671875 0.737 Q 0.86398388671875 0.737 0.8194838867187499 0.7105 Q 0.77498388671875 0.6839999999999999 0.75148388671875 0.6395 Q 0.72798388671875 0.595 0.72798388671875 0.544 Q 0.72798388671875 0.485 0.75748388671875 0.436 Q 0.78698388671875 0.38699999999999996 0.8384838867187501 0.3585 Q 0.88998388671875 0.32999999999999996 0.95198388671875 0.32999999999999996 Q 1.01098388671875 0.32999999999999996 1.04298388671875 0.3565 Q 1.07498388671875 0.38299999999999995 1.07498388671875 0.429 Q 1.07498388671875 0.45599999999999996 1.0639838867187499 0.45599999999999996 L 1.00898388671875 0.45599999999999996 L 0.82098388671875 0.45799999999999996 Q 0.81798388671875 0.479 0.81798388671875 0.503 Q 0.81798388671875 0.59 0.85848388671875 0.6415 Q 0.8989838867187501 0.693 0.97098388671875 0.693 Q 0.9969838867187499 0.693 1.02398388671875 0.6855 Q 1.05098388671875 0.6779999999999999 1.07298388671875 0.663 L 1.07498388671875 0.6619999999999999 M 0.85898388671875 0.37399999999999994 Q 0.83498388671875 0.39799999999999996 0.82498388671875 0.43999999999999995 L 0.98098388671875 0.43699999999999994 Q 0.97898388671875 0.39599999999999996 0.96298388671875 0.373 Q 0.94698388671875 0.35 0.91598388671875 0.35 Q 0.88298388671875 0.35 0.85898388671875 0.37399999999999994 M 1.5859804687499999 0.6619999999999999 Q 1.5899804687499999 0.6619999999999999 1.59248046875 0.6665 Q 1.59498046875 0.6709999999999999 1.59198046875 0.6729999999999999 L 1.4609804687499999 0.736 Q 1.45898046875 0.737 1.45598046875 0.737 Q 1.44698046875 0.737 1.43948046875 0.717 Q 1.43198046875 0.697 1.42998046875 0.665 Q 1.39598046875 0.698 1.36098046875 0.7175 Q 1.32598046875 0.737 1.28398046875 0.737 Q 1.24398046875 0.737 1.20998046875 0.7165 Q 1.17598046875 0.696 1.15598046875 0.6565 Q 1.13598046875 0.617 1.13598046875 0.5619999999999999 Q 1.13598046875 0.491 1.16948046875 0.43749999999999994 Q 1.20298046875 0.38399999999999995 1.25648046875 0.3555 Q 1.30998046875 0.32699999999999996 1.36798046875 0.32699999999999996 Q 1.42398046875 0.32699999999999996 1.4649804687499999 0.354 Q 1.48598046875 0.344 1.49998046875 0.32799999999999996 Q 1.50098046875 0.32699999999999996 1.5029804687500001 0.32699999999999996 Q 1.50498046875 0.32699999999999996 1.50748046875 0.32849999999999996 Q 1.50998046875 0.32999999999999996 1.50998046875 0.33199999999999996 L 1.50998046875 0.617 Q 1.50998046875 0.648 1.51698046875 0.661 Q 1.52398046875 0.6739999999999999 1.53998046875 0.6739999999999999 Q 1.55698046875 0.6739999999999999 1.58498046875 0.6619999999999999 L 1.5859804687499999 0.6619999999999999 M 1.42898046875 0.648 L 1.42898046875 0.644 L 1.42898046875 0.435 Q 1.42898046875 0.39699999999999996 1.40398046875 0.372 Q 1.37898046875 0.347 1.34198046875 0.347 Q 1.28998046875 0.347 1.25848046875 0.39799999999999996 Q 1.2269804687499999 0.44899999999999995 1.2269804687499999 0.53 Q 1.2269804687499999 0.605 1.25448046875 0.648 Q 1.28198046875 0.691 1.32998046875 0.691 Q 1.3739804687500001 0.691 1.42898046875 0.648 M 2.098970703125 0.719 Q 2.098970703125 0.725 2.095970703125 0.725 Q 2.070970703125 0.725 2.0569707031249997 0.724 L 1.998970703125 0.723 L 1.941970703125 0.724 Q 1.9269707031249999 0.725 1.901970703125 0.725 Q 1.8989707031249998 0.725 1.8989707031249998 0.719 Q 1.8989707031249998 0.713 1.901970703125 0.713 Q 1.935970703125 0.713 1.9469707031249999 0.699 Q 1.957970703125 0.6849999999999999 1.957970703125 0.644 L 1.957970703125 0.494 Q 1.957970703125 0.43799999999999994 1.9374707031249998 0.4115 Q 1.9169707031249998 0.38499999999999995 1.872970703125 0.38499999999999995 Q 1.8469707031249998 0.38499999999999995 1.8199707031249999 0.39699999999999996 Q 1.792970703125 0.409 1.770970703125 0.429 L 1.770970703125 0.644 Q 1.770970703125 0.6849999999999999 1.7819707031249998 0.699 Q 1.792970703125 0.713 1.826970703125 0.713 Q 1.8299707031249999 0.713 1.8299707031249999 0.719 Q 1.8299707031249999 0.725 1.826970703125 0.725 Q 1.8019707031249999 0.725 1.7879707031249998 0.724 L 1.7299707031249998 0.723 L 1.671970703125 0.724 Q 1.657970703125 0.725 1.6329707031249998 0.725 Q 1.629970703125 0.725 1.629970703125 0.719 Q 1.629970703125 0.713 1.6329707031249998 0.713 Q 1.6669707031249998 0.713 1.677970703125 0.699 Q 1.6889707031249999 0.6849999999999999 1.6889707031249999 0.644 L 1.6889707031249999 0.45299999999999996 Q 1.6889707031249999 0.421 1.6814707031249998 0.40599999999999997 Q 1.673970703125 0.39099999999999996 1.6569707031249998 0.39099999999999996 Q 1.641970703125 0.39099999999999996 1.6069707031249998 0.40599999999999997 L 1.605970703125 0.40599999999999997 Q 1.601970703125 0.40599999999999997 1.599970703125 0.40099999999999997 Q 1.597970703125 0.39599999999999996 1.6009707031249998 0.39499999999999996 L 1.731970703125 0.33099999999999996 Q 1.7379707031249998 0.32899999999999996 1.738970703125 0.32899999999999996 Q 1.748970703125 0.32899999999999996 1.7594707031249999 0.3515 Q 1.7699707031249998 0.37399999999999994 1.770970703125 0.41 Q 1.840970703125 0.32699999999999996 1.9229707031249998 0.32699999999999996 Q 1.977970703125 0.32699999999999996 2.0089707031249997 0.3605 Q 2.039970703125 0.39399999999999996 2.039970703125 0.45099999999999996 L 2.039970703125 0.644 Q 2.039970703125 0.6849999999999999 2.050970703125 0.699 Q 2.061970703125 0.713 2.095970703125 0.713 Q 2.098970703125 0.713 2.098970703125 0.719" fill="#f9f9f9" fill-rule="nonzero"></path></g><g><path d=" M 4.250407328437276 0.239 Q 4.250407328437276 0.241 4.244907328437275 0.242 Q 4.2394073284372755 0.243 4.238407328437275 0.24 Q 4.214407328437275 0.126 4.099407328437276 0.126 L 4.059407328437276 0.126 Q 4.023407328437275 0.126 4.008407328437276 0.139 Q 3.9934073284372755 0.1519999999999999 3.9934073284372755 0.18199999999999994 L 3.9934073284372755 0.39899999999999997 L 4.075407328437276 0.39899999999999997 Q 4.187407328437276 0.39899999999999997 4.187407328437276 0.32399999999999995 Q 4.187407328437276 0.32199999999999995 4.193407328437275 0.32199999999999995 Q 4.1994073284372755 0.32199999999999995 4.1994073284372755 0.32399999999999995 L 4.198407328437275 0.412 Q 4.198407328437275 0.44299999999999995 4.1994073284372755 0.45799999999999996 L 4.200407328437276 0.51 Q 4.200407328437276 0.513 4.194407328437276 0.513 Q 4.188407328437275 0.513 4.188407328437275 0.51 Q 4.188407328437275 0.425 4.073407328437275 0.425 L 3.9934073284372755 0.425 L 3.9934073284372755 0.64 Q 3.9934073284372755 0.6719999999999999 4.001407328437275 0.6865 Q 4.009407328437275 0.701 4.032907328437275 0.707 Q 4.056407328437276 0.713 4.105407328437275 0.713 Q 4.107407328437276 0.713 4.107407328437276 0.719 Q 4.107407328437276 0.725 4.105407328437275 0.725 Q 4.064407328437276 0.725 4.041407328437275 0.724 L 3.9434073284372753 0.723 L 3.8704073284372753 0.724 Q 3.8514073284372756 0.725 3.8174073284372754 0.725 Q 3.8144073284372753 0.725 3.8144073284372753 0.719 Q 3.8144073284372753 0.713 3.8174073284372754 0.713 Q 3.8534073284372754 0.713 3.8699073284372756 0.708 Q 3.8864073284372753 0.703 3.8924073284372755 0.6885 Q 3.8984073284372753 0.6739999999999999 3.8984073284372753 0.644 L 3.8984073284372753 0.18099999999999994 Q 3.8984073284372753 0.1509999999999999 3.8929073284372753 0.137 Q 3.8874073284372757 0.123 3.8714073284372756 0.11749999999999994 Q 3.8554073284372756 0.11199999999999999 3.8224073284372753 0.11199999999999999 Q 3.8194073284372756 0.11199999999999999 3.8194073284372756 0.10599999999999998 Q 3.8194073284372756 0.09999999999999998 3.8224073284372753 0.09999999999999998 L 4.238407328437275 0.09999999999999998 Q 4.248407328437276 0.09999999999999998 4.248407328437276 0.10899999999999999 L 4.250407328437276 0.239 M 4.6584307659372755 0.6619999999999999 Q 4.660430765937275 0.6619999999999999 4.662930765937276 0.6659999999999999 Q 4.665430765937275 0.6699999999999999 4.663430765937275 0.6719999999999999 Q 4.627430765937276 0.706 4.590430765937276 0.7215 Q 4.553430765937276 0.737 4.509430765937275 0.737 Q 4.447430765937275 0.737 4.402930765937276 0.7105 Q 4.358430765937276 0.6839999999999999 4.334930765937275 0.6395 Q 4.311430765937276 0.595 4.311430765937276 0.544 Q 4.311430765937276 0.485 4.340930765937276 0.436 Q 4.370430765937275 0.38699999999999996 4.421930765937276 0.3585 Q 4.473430765937276 0.32999999999999996 4.535430765937275 0.32999999999999996 Q 4.594430765937275 0.32999999999999996 4.626430765937275 0.3565 Q 4.6584307659372755 0.38299999999999995 4.6584307659372755 0.429 Q 4.6584307659372755 0.45599999999999996 4.647430765937275 0.45599999999999996 L 4.592430765937276 0.45599999999999996 L 4.404430765937276 0.45799999999999996 Q 4.401430765937276 0.479 4.401430765937276 0.503 Q 4.401430765937276 0.59 4.4419307659372755 0.6415 Q 4.482430765937275 0.693 4.554430765937275 0.693 Q 4.580430765937275 0.693 4.607430765937275 0.6855 Q 4.634430765937275 0.6779999999999999 4.656430765937276 0.663 L 4.6584307659372755 0.6619999999999999 M 4.442430765937275 0.37399999999999994 Q 4.418430765937275 0.39799999999999996 4.4084307659372755 0.43999999999999995 L 4.564430765937276 0.43699999999999994 Q 4.562430765937275 0.39599999999999996 4.546430765937275 0.373 Q 4.530430765937275 0.35 4.499430765937276 0.35 Q 4.466430765937275 0.35 4.442430765937275 0.37399999999999994 M 4.726408793281025 0.719 Q 4.726408793281025 0.713 4.729408793281025 0.713 Q 4.7624087932810255 0.713 4.774408793281025 0.6985 Q 4.7864087932810255 0.6839999999999999 4.7864087932810255 0.644 L 4.7864087932810255 0.133 Q 4.7864087932810255 0.09799999999999998 4.779908793281026 0.08250000000000002 Q 4.773408793281026 0.06699999999999995 4.756408793281025 0.06699999999999995 Q 4.741408793281026 0.06699999999999995 4.716408793281025 0.07899999999999996 L 4.715408793281025 0.07899999999999996 Q 4.711408793281025 0.07899999999999996 4.709408793281026 0.07399999999999995 Q 4.707408793281025 0.06899999999999995 4.709408793281026 0.06699999999999995 L 4.850408793281026 0.0010000000000000009 L 4.854408793281025 0 Q 4.858408793281026 0 4.863908793281025 0.0040000000000000036 Q 4.869408793281025 0.008000000000000007 4.869408793281025 0.01100000000000001 L 4.869408793281025 0.644 Q 4.869408793281025 0.6849999999999999 4.880408793281025 0.699 Q 4.891408793281025 0.713 4.925408793281025 0.713 Q 4.928408793281025 0.713 4.928408793281025 0.719 Q 4.928408793281025 0.725 4.925408793281025 0.725 Q 4.901408793281025 0.725 4.886408793281025 0.724 L 4.827408793281025 0.723 L 4.769408793281025 0.724 Q 4.7544087932810255 0.725 4.729408793281025 0.725 Q 4.726408793281025 0.725 4.726408793281025 0.719 M 4.990423441718525 0.719 Q 4.990423441718525 0.713 4.993423441718525 0.713 Q 5.026423441718525 0.713 5.038423441718525 0.6985 Q 5.050423441718525 0.6839999999999999 5.050423441718525 0.644 L 5.050423441718525 0.133 Q 5.050423441718525 0.09799999999999998 5.043923441718525 0.08250000000000002 Q 5.037423441718525 0.06699999999999995 5.020423441718525 0.06699999999999995 Q 5.005423441718525 0.06699999999999995 4.980423441718525 0.07899999999999996 L 4.979423441718525 0.07899999999999996 Q 4.975423441718525 0.07899999999999996 4.973423441718525 0.07399999999999995 Q 4.971423441718525 0.06899999999999995 4.973423441718525 0.06699999999999995 L 5.114423441718525 0.0010000000000000009 L 5.118423441718525 0 Q 5.122423441718525 0 5.127923441718525 0.0040000000000000036 Q 5.1334234417185245 0.008000000000000007 5.1334234417185245 0.01100000000000001 L 5.1334234417185245 0.644 Q 5.1334234417185245 0.6849999999999999 5.144423441718525 0.699 Q 5.155423441718525 0.713 5.1894234417185245 0.713 Q 5.192423441718525 0.713 5.192423441718525 0.719 Q 5.192423441718525 0.725 5.1894234417185245 0.725 Q 5.1654234417185245 0.725 5.150423441718525 0.724 L 5.091423441718525 0.723 L 5.033423441718525 0.724 Q 5.018423441718525 0.725 4.993423441718525 0.725 Q 4.990423441718525 0.725 4.990423441718525 0.719 M 5.703438090156024 0.6619999999999999 Q 5.707438090156025 0.6619999999999999 5.709938090156024 0.6665 Q 5.7124380901560246 0.6709999999999999 5.709438090156024 0.6729999999999999 L 5.578438090156024 0.736 Q 5.576438090156024 0.737 5.573438090156024 0.737 Q 5.564438090156025 0.737 5.556938090156025 0.717 Q 5.549438090156024 0.697 5.5474380901560245 0.665 Q 5.513438090156025 0.698 5.478438090156025 0.7175 Q 5.443438090156024 0.737 5.401438090156025 0.737 Q 5.361438090156025 0.737 5.327438090156025 0.7165 Q 5.293438090156025 0.696 5.2734380901560245 0.6565 Q 5.253438090156025 0.617 5.253438090156025 0.5619999999999999 Q 5.253438090156025 0.491 5.286938090156024 0.43749999999999994 Q 5.320438090156024 0.38399999999999995 5.373938090156025 0.3555 Q 5.427438090156024 0.32699999999999996 5.485438090156024 0.32699999999999996 Q 5.541438090156024 0.32699999999999996 5.582438090156025 0.354 Q 5.603438090156025 0.344 5.617438090156025 0.32799999999999996 Q 5.618438090156024 0.32699999999999996 5.620438090156025 0.32699999999999996 Q 5.622438090156025 0.32699999999999996 5.624938090156024 0.32849999999999996 Q 5.627438090156025 0.32999999999999996 5.627438090156025 0.33199999999999996 L 5.627438090156025 0.617 Q 5.627438090156025 0.648 5.634438090156024 0.661 Q 5.641438090156025 0.6739999999999999 5.657438090156025 0.6739999999999999 Q 5.674438090156024 0.6739999999999999 5.702438090156025 0.6619999999999999 L 5.703438090156024 0.6619999999999999 M 5.546438090156024 0.648 L 5.546438090156024 0.644 L 5.546438090156024 0.435 Q 5.546438090156024 0.39699999999999996 5.521438090156025 0.372 Q 5.496438090156024 0.347 5.459438090156024 0.347 Q 5.407438090156025 0.347 5.3759380901560245 0.39799999999999996 Q 5.344438090156024 0.44899999999999995 5.344438090156024 0.53 Q 5.344438090156024 0.605 5.371938090156025 0.648 Q 5.399438090156025 0.691 5.447438090156025 0.691 Q 5.4914380901560245 0.691 5.546438090156024 0.648 M 5.842928324531024 0.44299999999999995 Q 5.8644283245310245 0.46399999999999997 5.905428324531024 0.487 Q 5.941428324531024 0.507 5.960928324531024 0.52 Q 5.980428324531024 0.5329999999999999 5.994928324531024 0.5549999999999999 Q 6.009428324531024 0.577 6.009428324531024 0.608 Q 6.009428324531024 0.642 5.992428324531025 0.6709999999999999 Q 5.975428324531024 0.7 5.941928324531024 0.718 Q 5.908428324531024 0.736 5.862428324531024 0.736 Q 5.807428324531024 0.736 5.761428324531024 0.708 Q 5.7554283245310245 0.702 5.7554283245310245 0.696 L 5.753428324531024 0.604 Q 5.753428324531024 0.601 5.758928324531024 0.6005 Q 5.764428324531024 0.6 5.765428324531024 0.602 Q 5.782428324531025 0.652 5.816928324531024 0.6839999999999999 Q 5.851428324531025 0.716 5.890428324531024 0.716 Q 5.915428324531025 0.716 5.929428324531024 0.703 Q 5.943428324531024 0.69 5.943428324531024 0.6639999999999999 Q 5.943428324531024 0.626 5.921428324531024 0.6034999999999999 Q 5.899428324531025 0.581 5.857428324531024 0.5589999999999999 Q 5.823428324531024 0.5409999999999999 5.804428324531024 0.5285 Q 5.785428324531024 0.516 5.771928324531024 0.49449999999999994 Q 5.758428324531025 0.473 5.758428324531025 0.44099999999999995 Q 5.758428324531025 0.38399999999999995 5.799928324531024 0.356 Q 5.841428324531024 0.32799999999999996 5.900428324531024 0.32799999999999996 Q 5.939428324531025 0.32799999999999996 5.980428324531024 0.34299999999999997 Q 5.9894283245310245 0.347 5.9894283245310245 0.354 Q 5.9894283245310245 0.37699999999999995 5.988428324531024 0.38999999999999996 L 5.987428324531024 0.43799999999999994 Q 5.987428324531024 0.44099999999999995 5.9814283245310245 0.44099999999999995 Q 5.975428324531024 0.44099999999999995 5.975428324531024 0.43799999999999994 Q 5.975428324531024 0.418 5.959428324531024 0.39649999999999996 Q 5.943428324531024 0.37499999999999994 5.918428324531024 0.361 Q 5.893428324531024 0.347 5.867428324531025 0.347 Q 5.821428324531024 0.347 5.821428324531024 0.39099999999999996 Q 5.821428324531024 0.422 5.842928324531024 0.44299999999999995" fill="#f9f9f9" fill-rule="nonzero"></path></g><g><path d=" M -0.07810859164073788 1.69825 Q -0.05360859164073789 1.7217500000000001 -0.05360859164073789 1.7557500000000001 Q -0.05360859164073789 1.7822500000000001 -0.0673585916407379 1.8035 Q -0.08110859164073789 1.82475 -0.10485859164073791 1.837 Q -0.1286085916407379 1.84925 -0.1581085916407379 1.84925 Q -0.1741085916407379 1.84925 -0.1931085916407379 1.84775 Q -0.2001085916407379 1.84725 -0.2096085916407379 1.8467500000000001 Q -0.2191085916407379 1.8462500000000002 -0.23110859164073788 1.8462500000000002 L -0.2661085916407379 1.8467500000000001 Q -0.2756085916407379 1.84725 -0.2916085916407379 1.84725 Q -0.2931085916407379 1.84725 -0.2931085916407379 1.8442500000000002 Q -0.2931085916407379 1.84125 -0.2916085916407379 1.84125 Q -0.2741085916407379 1.84125 -0.2658585916407379 1.8385 Q -0.2576085916407379 1.83575 -0.2541085916407379 1.82875 Q -0.2506085916407379 1.82175 -0.2506085916407379 1.80675 L -0.2506085916407379 1.57525 Q -0.2506085916407379 1.56025 -0.2538585916407379 1.55325 Q -0.2571085916407379 1.5462500000000001 -0.2653585916407379 1.5435 Q -0.2736085916407379 1.54075 -0.2911085916407379 1.54075 Q -0.2921085916407379 1.54075 -0.2921085916407379 1.53775 Q -0.2921085916407379 1.53475 -0.2911085916407379 1.53475 L -0.2661085916407379 1.53525 Q -0.2441085916407379 1.5362500000000001 -0.23110859164073788 1.5362500000000001 Q -0.2176085916407379 1.5362500000000001 -0.2016085916407379 1.53475 Q -0.1961085916407379 1.5342500000000001 -0.1883585916407379 1.53375 Q -0.1806085916407379 1.53325 -0.17160859164073788 1.53325 Q -0.1286085916407379 1.53325 -0.10610859164073788 1.5510000000000002 Q -0.08360859164073789 1.56875 -0.08360859164073789 1.5987500000000001 Q -0.08360859164073789 1.6227500000000001 -0.0991085916407379 1.6420000000000001 Q -0.11460859164073789 1.6612500000000001 -0.1426085916407379 1.6712500000000001 Q -0.1026085916407379 1.67475 -0.07810859164073788 1.69825 M -0.19935859164073788 1.5442500000000001 Q -0.20560859164073791 1.54675 -0.2083585916407379 1.554 Q -0.2111085916407379 1.56125 -0.2111085916407379 1.57625 L -0.2111085916407379 1.6712500000000001 L -0.1891085916407379 1.67175 Q -0.1561085916407379 1.67175 -0.13960859164073788 1.6527500000000002 Q -0.1231085916407379 1.63375 -0.1231085916407379 1.6027500000000001 Q -0.1231085916407379 1.5742500000000001 -0.13735859164073788 1.558 Q -0.1516085916407379 1.54175 -0.1811085916407379 1.54175 Q -0.1931085916407379 1.54175 -0.19935859164073788 1.5442500000000001 M -0.11335859164073789 1.82075 Q -0.0961085916407379 1.8022500000000001 -0.0961085916407379 1.7677500000000002 Q -0.0961085916407379 1.7297500000000001 -0.11710859164073789 1.70675 Q -0.13810859164073788 1.68375 -0.1766085916407379 1.6832500000000001 Q -0.1901085916407379 1.68275 -0.2111085916407379 1.68425 L -0.2111085916407379 1.80675 Q -0.2111085916407379 1.81925 -0.20760859164073792 1.826 Q -0.2041085916407379 1.83275 -0.1946085916407379 1.836 Q -0.1851085916407379 1.83925 -0.1661085916407379 1.83925 Q -0.1306085916407379 1.83925 -0.11335859164073789 1.82075 M 0.21764507046863707 1.81725 Q 0.21964507046863707 1.81725 0.22064507046863707 1.8195000000000001 Q 0.22164507046863707 1.82175 0.22014507046863707 1.82275 L 0.15814507046863707 1.85225 Q 0.15714507046863707 1.8527500000000001 0.15564507046863707 1.8527500000000001 Q 0.15114507046863707 1.8527500000000001 0.1466450704686371 1.841 Q 0.14214507046863709 1.82925 0.14214507046863709 1.8102500000000001 Q 0.10514507046863708 1.85175 0.06514507046863707 1.85175 Q 0.03964507046863708 1.85175 0.024895070468637072 1.8355000000000001 Q 0.010145070468637073 1.81925 0.010145070468637073 1.7902500000000001 L 0.010145070468637073 1.71475 Q 0.010145070468637073 1.69575 0.0066450704686370765 1.6875 Q 0.0031450704686370734 1.6792500000000001 -0.004854929531362927 1.6792500000000001 Q -0.011854929531362926 1.6792500000000001 -0.020354929531362927 1.6832500000000001 L -0.021354929531362928 1.6832500000000001 Q -0.022854929531362925 1.6832500000000001 -0.023604929531362926 1.68075 Q -0.024354929531362927 1.67825 -0.022854929531362925 1.67775 L 0.036145070468637075 1.65025 L 0.03814507046863708 1.64975 Q 0.04014507046863708 1.64975 0.04214507046863708 1.65125 Q 0.04414507046863708 1.6527500000000002 0.04414507046863708 1.65475 L 0.04414507046863708 1.77125 Q 0.04414507046863708 1.82775 0.08614507046863708 1.82775 Q 0.10014507046863708 1.82775 0.11514507046863709 1.82075 Q 0.13014507046863708 1.81375 0.14214507046863709 1.80125 L 0.14214507046863709 1.71475 Q 0.14214507046863709 1.69575 0.13864507046863708 1.6875 Q 0.13514507046863708 1.6792500000000001 0.12714507046863707 1.6792500000000001 Q 0.12064507046863707 1.6792500000000001 0.11114507046863709 1.6832500000000001 L 0.11014507046863709 1.6832500000000001 Q 0.10864507046863708 1.6832500000000001 0.10814507046863708 1.68075 Q 0.10764507046863708 1.67825 0.10914507046863708 1.67775 L 0.16814507046863708 1.65025 L 0.17014507046863708 1.64975 Q 0.17214507046863708 1.64975 0.1741450704686371 1.65125 Q 0.1761450704686371 1.6527500000000002 0.1761450704686371 1.65475 L 0.1761450704686371 1.7922500000000001 Q 0.1761450704686371 1.80925 0.1798950704686371 1.81675 Q 0.18364507046863707 1.8242500000000001 0.19264507046863708 1.8242500000000001 Q 0.20064507046863708 1.8242500000000001 0.21714507046863707 1.81725 L 0.21764507046863707 1.81725 M 0.27214970914051206 1.58775 Q 0.2653997091405121 1.58125 0.2653997091405121 1.56975 Q 0.2653997091405121 1.55875 0.27214970914051206 1.5525 Q 0.2788997091405121 1.5462500000000001 0.29039970914051205 1.5462500000000001 Q 0.30139970914051206 1.5462500000000001 0.3076497091405121 1.5525 Q 0.3138997091405121 1.55875 0.3138997091405121 1.56975 Q 0.3138997091405121 1.58125 0.3076497091405121 1.58775 Q 0.30139970914051206 1.5942500000000002 0.29039970914051205 1.5942500000000002 Q 0.2788997091405121 1.5942500000000002 0.27214970914051206 1.58775 M 0.24489970914051207 1.8442500000000002 Q 0.24489970914051207 1.84125 0.24639970914051207 1.84125 Q 0.2643997091405121 1.84125 0.2703997091405121 1.8345 Q 0.2763997091405121 1.82775 0.2763997091405121 1.80675 L 0.2763997091405121 1.71475 Q 0.2763997091405121 1.69675 0.2728997091405121 1.689 Q 0.2693997091405121 1.6812500000000001 0.2603997091405121 1.6812500000000001 Q 0.2518997091405121 1.6812500000000001 0.23889970914051206 1.68775 L 0.23839970914051206 1.68775 Q 0.2363997091405121 1.68775 0.2353997091405121 1.685 Q 0.23439970914051209 1.68225 0.2363997091405121 1.68175 L 0.30439970914051206 1.65025 L 0.30639970914051207 1.64975 Q 0.30789970914051207 1.64975 0.3096497091405121 1.65125 Q 0.31139970914051207 1.6527500000000002 0.31139970914051207 1.65475 Q 0.31139970914051207 1.65825 0.31089970914051207 1.67475 Q 0.31039970914051207 1.6912500000000001 0.31039970914051207 1.71375 L 0.31039970914051207 1.80675 Q 0.31039970914051207 1.82775 0.3161497091405121 1.8345 Q 0.3218997091405121 1.84125 0.3403997091405121 1.84125 Q 0.34189970914051204 1.84125 0.34189970914051204 1.8442500000000002 Q 0.34189970914051204 1.84725 0.3403997091405121 1.84725 Q 0.3283997091405121 1.84725 0.3208997091405121 1.8467500000000001 L 0.29339970914051205 1.8462500000000002 L 0.2658997091405121 1.8467500000000001 Q 0.2583997091405121 1.84725 0.24639970914051207 1.84725 Q 0.24489970914051207 1.84725 0.24489970914051207 1.8442500000000002 M 0.3756594747655121 1.8442500000000002 Q 0.3756594747655121 1.84125 0.3766594747655121 1.84125 Q 0.39515947476551205 1.84125 0.4009094747655121 1.8345 Q 0.40665947476551206 1.82775 0.40665947476551206 1.80675 L 0.40715947476551206 1.54975 Q 0.40715947476551206 1.5317500000000002 0.40365947476551206 1.524 Q 0.40015947476551206 1.51625 0.3916594747655121 1.51625 Q 0.3831594747655121 1.51625 0.3701594747655121 1.52275 L 0.3691594747655121 1.52275 Q 0.3676594747655121 1.52275 0.3666594747655121 1.52025 Q 0.3656594747655121 1.51775 0.3671594747655121 1.51725 L 0.4341594747655121 1.4852500000000002 L 0.4361594747655121 1.48475 Q 0.4381594747655121 1.48475 0.4401594747655121 1.48625 Q 0.4421594747655121 1.4877500000000001 0.4421594747655121 1.4897500000000001 L 0.4421594747655121 1.80675 Q 0.4421594747655121 1.82775 0.4479094747655121 1.8345 Q 0.45365947476551205 1.84125 0.47165947476551207 1.84125 Q 0.47365947476551207 1.84125 0.47365947476551207 1.8442500000000002 Q 0.47365947476551207 1.84725 0.47165947476551207 1.84725 Q 0.4601594747655121 1.84725 0.4531594747655121 1.8467500000000001 L 0.4241594747655121 1.8462500000000002 L 0.39615947476551205 1.8467500000000001 Q 0.38915947476551205 1.84725 0.3766594747655121 1.84725 Q 0.3756594747655121 1.84725 0.3756594747655121 1.8442500000000002 M 0.7419026388280121 1.81725 Q 0.7434026388280122 1.81725 0.744402638828012 1.81975 Q 0.7454026388280122 1.8222500000000001 0.7439026388280121 1.82325 L 0.6844026388280121 1.85175 Q 0.6814026388280121 1.8527500000000001 0.6809026388280122 1.8527500000000001 Q 0.6749026388280122 1.8527500000000001 0.6704026388280121 1.8422500000000002 Q 0.665902638828012 1.83175 0.6654026388280121 1.81325 Q 0.6474026388280121 1.83175 0.6279026388280121 1.84275 Q 0.6084026388280122 1.85375 0.5844026388280121 1.85375 Q 0.5634026388280121 1.85375 0.5454026388280121 1.842 Q 0.5274026388280121 1.8302500000000002 0.5169026388280121 1.8082500000000001 Q 0.5064026388280121 1.7862500000000001 0.5064026388280121 1.7577500000000001 Q 0.5064026388280121 1.72125 0.5239026388280121 1.6965000000000001 Q 0.5414026388280121 1.67175 0.5676526388280121 1.65975 Q 0.5939026388280121 1.64775 0.6204026388280122 1.64775 Q 0.6434026388280121 1.64775 0.6654026388280121 1.65825 L 0.6654026388280121 1.5502500000000001 Q 0.6654026388280121 1.5317500000000002 0.6619026388280121 1.524 Q 0.6584026388280121 1.51625 0.6494026388280121 1.51625 Q 0.6429026388280121 1.51625 0.6279026388280121 1.52325 L 0.6274026388280121 1.52325 Q 0.6254026388280121 1.52325 0.6244026388280122 1.52075 Q 0.6234026388280121 1.51825 0.6249026388280121 1.51725 L 0.6914026388280121 1.4852500000000002 Q 0.6924026388280121 1.48475 0.6939026388280121 1.48475 Q 0.6954026388280121 1.48475 0.6976526388280121 1.48625 Q 0.6999026388280121 1.4877500000000001 0.6999026388280121 1.4897500000000001 L 0.6999026388280121 1.79125 Q 0.6999026388280121 1.80875 0.7036526388280121 1.8165 Q 0.7074026388280121 1.8242500000000001 0.7164026388280121 1.8242500000000001 Q 0.7279026388280121 1.8242500000000001 0.7409026388280121 1.81775 L 0.7419026388280121 1.81725 M 0.6374026388280121 1.826 Q 0.6514026388280121 1.8182500000000001 0.6654026388280121 1.8042500000000001 L 0.6654026388280121 1.68975 Q 0.6549026388280121 1.67475 0.6411526388280121 1.66675 Q 0.6274026388280121 1.65875 0.6089026388280121 1.65875 Q 0.5789026388280121 1.65875 0.5619026388280121 1.67975 Q 0.5449026388280122 1.70075 0.5449026388280122 1.74225 Q 0.5449026388280122 1.7842500000000001 0.5621526388280121 1.8090000000000002 Q 0.5794026388280121 1.83375 0.6064026388280122 1.83375 Q 0.6234026388280121 1.83375 0.6374026388280121 1.826 M 0.795914601718637 1.58775 Q 0.789164601718637 1.58125 0.789164601718637 1.56975 Q 0.789164601718637 1.55875 0.795914601718637 1.5525 Q 0.8026646017186371 1.5462500000000001 0.814164601718637 1.5462500000000001 Q 0.825164601718637 1.5462500000000001 0.831414601718637 1.5525 Q 0.837664601718637 1.55875 0.837664601718637 1.56975 Q 0.837664601718637 1.58125 0.831414601718637 1.58775 Q 0.825164601718637 1.5942500000000002 0.814164601718637 1.5942500000000002 Q 0.8026646017186371 1.5942500000000002 0.795914601718637 1.58775 M 0.768664601718637 1.8442500000000002 Q 0.768664601718637 1.84125 0.770164601718637 1.84125 Q 0.788164601718637 1.84125 0.794164601718637 1.8345 Q 0.800164601718637 1.82775 0.800164601718637 1.80675 L 0.800164601718637 1.71475 Q 0.800164601718637 1.69675 0.7966646017186371 1.689 Q 0.793164601718637 1.6812500000000001 0.784164601718637 1.6812500000000001 Q 0.775664601718637 1.6812500000000001 0.762664601718637 1.68775 L 0.762164601718637 1.68775 Q 0.760164601718637 1.68775 0.759164601718637 1.685 Q 0.758164601718637 1.68225 0.760164601718637 1.68175 L 0.828164601718637 1.65025 L 0.830164601718637 1.64975 Q 0.831664601718637 1.64975 0.833414601718637 1.65125 Q 0.835164601718637 1.6527500000000002 0.835164601718637 1.65475 Q 0.835164601718637 1.65825 0.834664601718637 1.67475 Q 0.834164601718637 1.6912500000000001 0.834164601718637 1.71375 L 0.834164601718637 1.80675 Q 0.834164601718637 1.82775 0.839914601718637 1.8345 Q 0.845664601718637 1.84125 0.8641646017186371 1.84125 Q 0.865664601718637 1.84125 0.865664601718637 1.8442500000000002 Q 0.865664601718637 1.84725 0.8641646017186371 1.84725 Q 0.8521646017186371 1.84725 0.844664601718637 1.8467500000000001 L 0.817164601718637 1.8462500000000002 L 0.7896646017186371 1.8467500000000001 Q 0.782164601718637 1.84725 0.770164601718637 1.84725 Q 0.768664601718637 1.84725 0.768664601718637 1.8442500000000002 M 1.132924367343637 1.8442500000000002 Q 1.132924367343637 1.84725 1.131424367343637 1.84725 Q 1.119424367343637 1.84725 1.111924367343637 1.8467500000000001 L 1.0844243673436371 1.8462500000000002 L 1.056924367343637 1.8467500000000001 Q 1.049424367343637 1.84725 1.037424367343637 1.84725 Q 1.0359243673436371 1.84725 1.0359243673436371 1.8442500000000002 Q 1.0359243673436371 1.84125 1.037424367343637 1.84125 Q 1.055424367343637 1.84125 1.0611743673436371 1.8345 Q 1.066924367343637 1.82775 1.066924367343637 1.80675 L 1.066924367343637 1.72875 Q 1.066924367343637 1.69975 1.056424367343637 1.68625 Q 1.0459243673436371 1.67275 1.022924367343637 1.67275 Q 1.008924367343637 1.67275 0.9939243673436371 1.67975 Q 0.9789243673436371 1.68675 0.9669243673436371 1.6992500000000001 L 0.9669243673436371 1.80675 Q 0.9669243673436371 1.82775 0.9726743673436371 1.8345 Q 0.978424367343637 1.84125 0.9969243673436371 1.84125 Q 0.998424367343637 1.84125 0.998424367343637 1.8442500000000002 Q 0.998424367343637 1.84725 0.9969243673436371 1.84725 Q 0.9849243673436371 1.84725 0.977424367343637 1.8467500000000001 L 0.949924367343637 1.8462500000000002 L 0.921924367343637 1.8467500000000001 Q 0.914924367343637 1.84725 0.902924367343637 1.84725 Q 0.9014243673436371 1.84725 0.9014243673436371 1.8442500000000002 Q 0.9014243673436371 1.84125 0.902924367343637 1.84125 Q 0.920924367343637 1.84125 0.9266743673436371 1.8345 Q 0.9324243673436371 1.82775 0.9324243673436371 1.80675 L 0.9324243673436371 1.70925 Q 0.9324243673436371 1.69275 0.9286743673436371 1.6855 Q 0.924924367343637 1.67825 0.915924367343637 1.67825 Q 0.9064243673436371 1.67825 0.8894243673436371 1.6852500000000001 L 0.8884243673436371 1.6852500000000001 Q 0.886924367343637 1.6852500000000001 0.8861743673436371 1.68275 Q 0.885424367343637 1.68025 0.886924367343637 1.67975 L 0.948924367343637 1.65025 Q 0.949924367343637 1.64975 0.9519243673436371 1.64975 Q 0.9569243673436371 1.64975 0.9616743673436371 1.661 Q 0.966424367343637 1.67225 0.9669243673436371 1.69025 Q 1.0034243673436372 1.64775 1.043424367343637 1.64775 Q 1.070924367343637 1.64775 1.086174367343637 1.6640000000000001 Q 1.101424367343637 1.68025 1.101424367343637 1.70925 L 1.101424367343637 1.80675 Q 1.101424367343637 1.82775 1.107174367343637 1.8345 Q 1.112924367343637 1.84125 1.131424367343637 1.84125 Q 1.132924367343637 1.84125 1.132924367343637 1.8442500000000002 M 1.3386841329686372 1.6487500000000002 Q 1.339684132968637 1.6487500000000002 1.340934132968637 1.6495 Q 1.342184132968637 1.65025 1.342184132968637 1.65075 L 1.342184132968637 1.88225 Q 1.342184132968637 1.92975 1.3151841329686371 1.95875 Q 1.288184132968637 1.9877500000000001 1.2401841329686372 1.9877500000000001 Q 1.209184132968637 1.9877500000000001 1.1896841329686372 1.9775 Q 1.170184132968637 1.96725 1.170184132968637 1.95025 Q 1.170184132968637 1.94025 1.1756841329686372 1.9355 Q 1.181184132968637 1.93075 1.188684132968637 1.93075 Q 1.1976841329686372 1.93075 1.203184132968637 1.9355 Q 1.208684132968637 1.94025 1.214684132968637 1.95025 Q 1.223684132968637 1.96375 1.232684132968637 1.9705000000000001 Q 1.241684132968637 1.9772500000000002 1.259684132968637 1.9772500000000002 Q 1.282184132968637 1.9772500000000002 1.295184132968637 1.9595 Q 1.308184132968637 1.94175 1.308184132968637 1.89425 L 1.308184132968637 1.81375 Q 1.2906841329686372 1.83175 1.272434132968637 1.8422500000000002 Q 1.2541841329686372 1.8527500000000001 1.232684132968637 1.8527500000000001 Q 1.2016841329686372 1.8527500000000001 1.180684132968637 1.83 Q 1.1596841329686371 1.80725 1.1596841329686371 1.76625 Q 1.1596841329686371 1.73025 1.176434132968637 1.7032500000000002 Q 1.193184132968637 1.67625 1.2194341329686371 1.6620000000000001 Q 1.245684132968637 1.64775 1.273184132968637 1.64775 Q 1.299684132968637 1.64775 1.321684132968637 1.66225 Q 1.331684132968637 1.6572500000000001 1.3371841329686371 1.64925 Q 1.337684132968637 1.6487500000000002 1.3386841329686372 1.6487500000000002 M 1.308184132968637 1.80525 L 1.308184132968637 1.7012500000000002 Q 1.308184132968637 1.68275 1.294184132968637 1.67025 Q 1.2801841329686372 1.65775 1.2606841329686371 1.65775 Q 1.232684132968637 1.65775 1.215684132968637 1.68375 Q 1.198684132968637 1.70975 1.198684132968637 1.75075 Q 1.198684132968637 1.7882500000000001 1.2129341329686372 1.8105 Q 1.227184132968637 1.83275 1.2521841329686372 1.83275 Q 1.2786841329686371 1.83275 1.308184132968637 1.80525 M 1.700678517734262 1.65125 Q 1.702678517734262 1.6527500000000002 1.702678517734262 1.65475 L 1.702678517734262 1.88225 Q 1.702678517734262 1.92975 1.6764285177342622 1.95875 Q 1.650178517734262 1.9877500000000001 1.6006785177342622 1.9877500000000001 Q 1.571678517734262 1.9877500000000001 1.5516785177342622 1.977 Q 1.5316785177342622 1.96625 1.5316785177342622 1.94875 Q 1.5316785177342622 1.94025 1.537178517734262 1.9355 Q 1.5426785177342621 1.93075 1.5506785177342621 1.93075 Q 1.559178517734262 1.93075 1.5646785177342621 1.9355 Q 1.5701785177342622 1.94025 1.5766785177342622 1.94975 Q 1.585678517734262 1.96275 1.5954285177342622 1.97 Q 1.6051785177342621 1.9772500000000002 1.6226785177342622 1.9772500000000002 Q 1.644178517734262 1.9772500000000002 1.6564285177342621 1.9595 Q 1.6686785177342622 1.94175 1.6686785177342622 1.89425 L 1.6686785177342622 1.8102500000000001 Q 1.631678517734262 1.85175 1.5901785177342622 1.85175 Q 1.5641785177342622 1.85175 1.549928517734262 1.8355000000000001 Q 1.5356785177342622 1.81925 1.5356785177342622 1.7902500000000001 L 1.5356785177342622 1.71475 Q 1.5356785177342622 1.69575 1.5321785177342622 1.6875 Q 1.528678517734262 1.6792500000000001 1.520678517734262 1.6792500000000001 Q 1.513178517734262 1.6792500000000001 1.504678517734262 1.6832500000000001 L 1.5036785177342622 1.6832500000000001 Q 1.5021785177342621 1.6832500000000001 1.5014285177342621 1.68075 Q 1.500678517734262 1.67825 1.5021785177342621 1.67775 L 1.5616785177342623 1.65025 L 1.563178517734262 1.64975 Q 1.565178517734262 1.64975 1.5674285177342622 1.65125 Q 1.569678517734262 1.6527500000000002 1.569678517734262 1.65475 L 1.569678517734262 1.77125 Q 1.569678517734262 1.79975 1.5799285177342621 1.8135000000000001 Q 1.5901785177342622 1.82725 1.6111785177342621 1.82725 Q 1.625678517734262 1.82725 1.640928517734262 1.8202500000000001 Q 1.656178517734262 1.81325 1.6686785177342622 1.80075 L 1.6686785177342622 1.71475 Q 1.6686785177342622 1.69575 1.6651785177342622 1.6875 Q 1.6616785177342621 1.6792500000000001 1.653678517734262 1.6792500000000001 Q 1.6466785177342622 1.6792500000000001 1.638178517734262 1.6832500000000001 L 1.6371785177342622 1.6832500000000001 Q 1.635678517734262 1.6832500000000001 1.634928517734262 1.68075 Q 1.634178517734262 1.67825 1.635678517734262 1.67775 L 1.6946785177342623 1.65025 L 1.696678517734262 1.64975 Q 1.6986785177342623 1.64975 1.700678517734262 1.65125 M 1.8039353536717622 1.8395000000000001 Q 1.7814353536717622 1.82525 1.769185353671762 1.8010000000000002 Q 1.7569353536717622 1.77675 1.7569353536717622 1.74825 Q 1.7569353536717622 1.71575 1.7729353536717622 1.693 Q 1.7889353536717623 1.67025 1.8139353536717622 1.659 Q 1.838935353671762 1.64775 1.864935353671762 1.64775 Q 1.8944353536717622 1.64775 1.9169353536717622 1.66225 Q 1.9394353536717621 1.67675 1.9514353536717621 1.7005000000000001 Q 1.9634353536717621 1.72425 1.9634353536717621 1.75075 Q 1.9634353536717621 1.78125 1.948685353671762 1.80475 Q 1.933935353671762 1.8282500000000002 1.909435353671762 1.841 Q 1.8849353536717621 1.85375 1.8559353536717622 1.85375 Q 1.8264353536717621 1.85375 1.8039353536717622 1.8395000000000001 M 1.9089353536717621 1.82475 Q 1.9224353536717622 1.80525 1.9224353536717622 1.76625 Q 1.9224353536717622 1.7337500000000001 1.9126853536717623 1.709 Q 1.9029353536717621 1.68425 1.8859353536717622 1.671 Q 1.8689353536717621 1.65775 1.8479353536717622 1.65775 Q 1.8234353536717622 1.65775 1.8101853536717623 1.6765 Q 1.7969353536717623 1.6952500000000001 1.7969353536717623 1.7317500000000001 Q 1.7969353536717623 1.76325 1.8064353536717621 1.7890000000000001 Q 1.8159353536717622 1.81475 1.8326853536717622 1.8295000000000001 Q 1.8494353536717623 1.8442500000000002 1.8704353536717622 1.8442500000000002 Q 1.895435353671762 1.8442500000000002 1.9089353536717621 1.82475 M 2.226182668124887 1.81725 Q 2.2281826681248873 1.81725 2.229182668124887 1.8195000000000001 Q 2.230182668124887 1.82175 2.228682668124887 1.82275 L 2.166682668124887 1.85225 Q 2.1656826681248873 1.8527500000000001 2.1641826681248872 1.8527500000000001 Q 2.159682668124887 1.8527500000000001 2.1551826681248873 1.841 Q 2.150682668124887 1.82925 2.150682668124887 1.8102500000000001 Q 2.1136826681248873 1.85175 2.073682668124887 1.85175 Q 2.048182668124887 1.85175 2.0334326681248873 1.8355000000000001 Q 2.018682668124887 1.81925 2.018682668124887 1.7902500000000001 L 2.018682668124887 1.71475 Q 2.018682668124887 1.69575 2.015182668124887 1.6875 Q 2.0116826681248874 1.6792500000000001 2.0036826681248874 1.6792500000000001 Q 1.9966826681248873 1.6792500000000001 1.988182668124887 1.6832500000000001 L 1.9871826681248872 1.6832500000000001 Q 1.9856826681248871 1.6832500000000001 1.9849326681248871 1.68075 Q 1.984182668124887 1.67825 1.9856826681248871 1.67775 L 2.0446826681248873 1.65025 L 2.046682668124887 1.64975 Q 2.0486826681248873 1.64975 2.050682668124887 1.65125 Q 2.0526826681248873 1.6527500000000002 2.0526826681248873 1.65475 L 2.0526826681248873 1.77125 Q 2.0526826681248873 1.82775 2.094682668124887 1.82775 Q 2.1086826681248874 1.82775 2.123682668124887 1.82075 Q 2.138682668124887 1.81375 2.150682668124887 1.80125 L 2.150682668124887 1.71475 Q 2.150682668124887 1.69575 2.1471826681248873 1.6875 Q 2.143682668124887 1.6792500000000001 2.135682668124887 1.6792500000000001 Q 2.129182668124887 1.6792500000000001 2.119682668124887 1.6832500000000001 L 2.118682668124887 1.6832500000000001 Q 2.117182668124887 1.6832500000000001 2.1166826681248874 1.68075 Q 2.116182668124887 1.67825 2.1176826681248873 1.67775 L 2.1766826681248874 1.65025 L 2.178682668124887 1.64975 Q 2.180682668124887 1.64975 2.182682668124887 1.65125 Q 2.1846826681248874 1.6527500000000002 2.1846826681248874 1.65475 L 2.1846826681248874 1.7922500000000001 Q 2.1846826681248874 1.80925 2.188432668124887 1.81675 Q 2.1921826681248873 1.8242500000000001 2.201182668124887 1.8242500000000001 Q 2.209182668124887 1.8242500000000001 2.2256826681248874 1.81725 L 2.226182668124887 1.81725 M 2.393437306796762 1.6565 Q 2.403437306796762 1.6632500000000001 2.403437306796762 1.67275 Q 2.403437306796762 1.68025 2.398437306796762 1.6855 Q 2.393437306796762 1.69075 2.384937306796762 1.69075 Q 2.379937306796762 1.69075 2.376437306796762 1.689 Q 2.372937306796762 1.6872500000000001 2.370437306796762 1.685 Q 2.367937306796762 1.68275 2.366937306796762 1.68225 Q 2.362937306796762 1.67825 2.359187306796762 1.6760000000000002 Q 2.355437306796762 1.67375 2.349937306796762 1.67375 Q 2.343937306796762 1.67375 2.336937306796762 1.6785 Q 2.329937306796762 1.6832500000000001 2.315937306796762 1.6992500000000001 L 2.315937306796762 1.80675 Q 2.315937306796762 1.82125 2.319687306796762 1.8285 Q 2.323437306796762 1.83575 2.333437306796762 1.8385 Q 2.343437306796762 1.84125 2.363437306796762 1.84125 Q 2.364937306796762 1.84125 2.364937306796762 1.8442500000000002 Q 2.364937306796762 1.84725 2.363437306796762 1.84725 Q 2.346937306796762 1.84725 2.336937306796762 1.8467500000000001 L 2.298937306796762 1.8462500000000002 L 2.270937306796762 1.8467500000000001 Q 2.263937306796762 1.84725 2.251937306796762 1.84725 Q 2.250437306796762 1.84725 2.250437306796762 1.8442500000000002 Q 2.250437306796762 1.84125 2.251937306796762 1.84125 Q 2.269937306796762 1.84125 2.275687306796762 1.8345 Q 2.281437306796762 1.82775 2.281437306796762 1.80675 L 2.281437306796762 1.70925 Q 2.281437306796762 1.69275 2.277687306796762 1.6855 Q 2.273937306796762 1.67825 2.264937306796762 1.67825 Q 2.255437306796762 1.67825 2.238437306796762 1.6852500000000001 L 2.237437306796762 1.6852500000000001 Q 2.235937306796762 1.6852500000000001 2.235187306796762 1.68275 Q 2.234437306796762 1.68025 2.235937306796762 1.67975 L 2.297937306796762 1.65025 Q 2.298937306796762 1.64975 2.300937306796762 1.64975 Q 2.305937306796762 1.64975 2.310687306796762 1.6607500000000002 Q 2.315437306796762 1.67175 2.315937306796762 1.68975 Q 2.336437306796762 1.66675 2.348687306796762 1.65825 Q 2.360937306796762 1.64975 2.371937306796762 1.64975 Q 2.383437306796762 1.64975 2.393437306796762 1.6565 M 2.732200978671762 1.65875 Q 2.749950978671762 1.66975 2.760450978671762 1.69075 Q 2.770950978671762 1.71175 2.770950978671762 1.7397500000000001 Q 2.770950978671762 1.77825 2.7542009786717623 1.804 Q 2.7374509786717622 1.82975 2.712450978671762 1.84175 Q 2.687450978671762 1.85375 2.662450978671762 1.85375 Q 2.647950978671762 1.85375 2.636700978671762 1.8515000000000001 Q 2.625450978671762 1.84925 2.612950978671762 1.84375 L 2.612950978671762 1.94425 Q 2.612950978671762 1.9592500000000002 2.6164509786717622 1.96625 Q 2.619950978671762 1.9732500000000002 2.629950978671762 1.976 Q 2.639950978671762 1.97875 2.660950978671762 1.97875 Q 2.662450978671762 1.97875 2.662450978671762 1.9817500000000001 Q 2.662450978671762 1.98475 2.660950978671762 1.98475 Q 2.643450978671762 1.98475 2.633450978671762 1.98425 L 2.595950978671762 1.9837500000000001 L 2.567950978671762 1.98425 Q 2.560950978671762 1.98475 2.548450978671762 1.98475 Q 2.546950978671762 1.98475 2.546950978671762 1.9817500000000001 Q 2.546950978671762 1.97875 2.548450978671762 1.97875 Q 2.561450978671762 1.97875 2.567950978671762 1.976 Q 2.574450978671762 1.9732500000000002 2.576700978671762 1.96625 Q 2.578950978671762 1.9592500000000002 2.578950978671762 1.94425 L 2.578950978671762 1.71025 Q 2.578950978671762 1.6932500000000001 2.574950978671762 1.6855 Q 2.570950978671762 1.67775 2.561450978671762 1.67775 Q 2.551950978671762 1.67775 2.535950978671762 1.6852500000000001 L 2.535450978671762 1.6852500000000001 Q 2.533450978671762 1.6852500000000001 2.532200978671762 1.68275 Q 2.530950978671762 1.68025 2.532950978671762 1.67975 L 2.593450978671762 1.65075 L 2.596450978671762 1.64975 Q 2.602450978671762 1.64975 2.607200978671762 1.65975 Q 2.611950978671762 1.66975 2.612950978671762 1.6872500000000001 Q 2.6524509786717623 1.64775 2.693450978671762 1.64775 Q 2.714450978671762 1.64775 2.732200978671762 1.65875 M 2.717450978671762 1.82 Q 2.732950978671762 1.79725 2.732950978671762 1.75525 Q 2.732950978671762 1.71425 2.7149509786717623 1.6920000000000002 Q 2.696950978671762 1.66975 2.668950978671762 1.66975 Q 2.652950978671762 1.66975 2.6397009786717622 1.67675 Q 2.626450978671762 1.68375 2.612950978671762 1.69675 L 2.612950978671762 1.81325 Q 2.625950978671762 1.82775 2.6404509786717623 1.83525 Q 2.654950978671762 1.84275 2.675950978671762 1.84275 Q 2.701950978671762 1.84275 2.717450978671762 1.82 M 2.975194142734262 1.81775 Q 2.976694142734262 1.81775 2.977944142734262 1.8195000000000001 Q 2.9791941427342623 1.82125 2.978194142734262 1.82275 Q 2.960694142734262 1.83875 2.9424441427342622 1.846 Q 2.924194142734262 1.85325 2.9031941427342622 1.85325 Q 2.873194142734262 1.85325 2.851444142734262 1.84 Q 2.829694142734262 1.82675 2.818444142734262 1.80475 Q 2.807194142734262 1.78275 2.807194142734262 1.75725 Q 2.807194142734262 1.7277500000000001 2.8214441427342623 1.703 Q 2.835694142734262 1.67825 2.860944142734262 1.6640000000000001 Q 2.886194142734262 1.64975 2.9166941427342623 1.64975 Q 2.944694142734262 1.64975 2.960194142734262 1.663 Q 2.975694142734262 1.67625 2.975694142734262 1.6992500000000001 Q 2.975694142734262 1.71175 2.970194142734262 1.71175 L 2.946194142734262 1.71175 L 2.847694142734262 1.71275 Q 2.845694142734262 1.72275 2.845694142734262 1.73725 Q 2.845694142734262 1.78025 2.866444142734262 1.80675 Q 2.8871941427342622 1.83325 2.923694142734262 1.83325 Q 2.952694142734262 1.83325 2.974694142734262 1.81775 L 2.975194142734262 1.81775 M 2.867694142734262 1.6715 Q 2.854694142734262 1.6832500000000001 2.849194142734262 1.70475 L 2.9351941427342623 1.70275 Q 2.934694142734262 1.68275 2.925194142734262 1.6712500000000001 Q 2.915694142734262 1.65975 2.8991941427342622 1.65975 Q 2.8806941427342623 1.65975 2.867694142734262 1.6715 M 3.158949513828012 1.6565 Q 3.168949513828012 1.6632500000000001 3.168949513828012 1.67275 Q 3.168949513828012 1.68025 3.1639495138280123 1.6855 Q 3.158949513828012 1.69075 3.150449513828012 1.69075 Q 3.1454495138280123 1.69075 3.141949513828012 1.689 Q 3.138449513828012 1.6872500000000001 3.1359495138280122 1.685 Q 3.1334495138280123 1.68275 3.132449513828012 1.68225 Q 3.128449513828012 1.67825 3.1246995138280123 1.6760000000000002 Q 3.120949513828012 1.67375 3.115449513828012 1.67375 Q 3.1094495138280123 1.67375 3.102449513828012 1.6785 Q 3.095449513828012 1.6832500000000001 3.0814495138280122 1.6992500000000001 L 3.0814495138280122 1.80675 Q 3.0814495138280122 1.82125 3.085199513828012 1.8285 Q 3.088949513828012 1.83575 3.0989495138280123 1.8385 Q 3.108949513828012 1.84125 3.128949513828012 1.84125 Q 3.130449513828012 1.84125 3.130449513828012 1.8442500000000002 Q 3.130449513828012 1.84725 3.128949513828012 1.84725 Q 3.112449513828012 1.84725 3.102449513828012 1.8467500000000001 L 3.064449513828012 1.8462500000000002 L 3.0364495138280123 1.8467500000000001 Q 3.029449513828012 1.84725 3.017449513828012 1.84725 Q 3.015949513828012 1.84725 3.015949513828012 1.8442500000000002 Q 3.015949513828012 1.84125 3.017449513828012 1.84125 Q 3.035449513828012 1.84125 3.041199513828012 1.8345 Q 3.0469495138280123 1.82775 3.0469495138280123 1.80675 L 3.0469495138280123 1.70925 Q 3.0469495138280123 1.69275 3.043199513828012 1.6855 Q 3.039449513828012 1.67825 3.030449513828012 1.67825 Q 3.020949513828012 1.67825 3.003949513828012 1.6852500000000001 L 3.0029495138280122 1.6852500000000001 Q 3.001449513828012 1.6852500000000001 3.000699513828012 1.68275 Q 2.999949513828012 1.68025 3.001449513828012 1.67975 L 3.063449513828012 1.65025 Q 3.064449513828012 1.64975 3.066449513828012 1.64975 Q 3.071449513828012 1.64975 3.076199513828012 1.6607500000000002 Q 3.080949513828012 1.67175 3.0814495138280122 1.68975 Q 3.101949513828012 1.66675 3.1141995138280123 1.65825 Q 3.126449513828012 1.64975 3.1374495138280123 1.64975 Q 3.148949513828012 1.64975 3.158949513828012 1.6565 M 3.245458791171762 1.70975 Q 3.256708791171762 1.72025 3.277708791171762 1.73125 Q 3.295708791171762 1.74075 3.305458791171762 1.7475 Q 3.315208791171762 1.75425 3.322208791171762 1.76475 Q 3.3292087911717623 1.77525 3.3292087911717623 1.79075 Q 3.3292087911717623 1.8162500000000001 3.3099587911717623 1.8345 Q 3.2907087911717623 1.8527500000000001 3.257208791171762 1.8527500000000001 Q 3.231208791171762 1.8527500000000001 3.2082087911717623 1.8382500000000002 Q 3.205208791171762 1.83525 3.205208791171762 1.8322500000000002 L 3.2042087911717623 1.78975 Q 3.2042087911717623 1.7882500000000001 3.206958791171762 1.788 Q 3.2097087911717623 1.78775 3.210208791171762 1.78925 Q 3.219208791171762 1.8142500000000001 3.2354587911717623 1.82875 Q 3.251708791171762 1.84325 3.271708791171762 1.84325 Q 3.285708791171762 1.84325 3.293458791171762 1.8362500000000002 Q 3.3012087911717622 1.82925 3.3012087911717622 1.81575 Q 3.3012087911717622 1.80175 3.295208791171762 1.792 Q 3.2892087911717622 1.7822500000000001 3.280458791171762 1.7765 Q 3.271708791171762 1.77075 3.256708791171762 1.76275 Q 3.2402087911717623 1.75475 3.230458791171762 1.74825 Q 3.220708791171762 1.7417500000000001 3.213958791171762 1.73125 Q 3.207208791171762 1.72075 3.207208791171762 1.70475 Q 3.207208791171762 1.67675 3.227708791171762 1.6625 Q 3.2482087911717623 1.64825 3.276708791171762 1.64825 Q 3.2962087911717624 1.64825 3.3147087911717623 1.65575 Q 3.319208791171762 1.6572500000000001 3.319208791171762 1.6612500000000001 Q 3.319208791171762 1.67225 3.3187087911717623 1.67825 L 3.318208791171762 1.70075 Q 3.318208791171762 1.70175 3.315208791171762 1.70175 Q 3.312208791171762 1.70175 3.312208791171762 1.70075 Q 3.312208791171762 1.69075 3.304208791171762 1.68075 Q 3.2962087911717624 1.67075 3.283958791171762 1.6645 Q 3.271708791171762 1.65825 3.259208791171762 1.65825 Q 3.247708791171762 1.65825 3.2409587911717623 1.6640000000000001 Q 3.234208791171762 1.66975 3.234208791171762 1.68275 Q 3.234208791171762 1.6992500000000001 3.245458791171762 1.70975 M 3.4154651388280124 1.8395000000000001 Q 3.392965138828012 1.82525 3.380715138828012 1.8010000000000002 Q 3.3684651388280122 1.77675 3.3684651388280122 1.74825 Q 3.3684651388280122 1.71575 3.3844651388280123 1.693 Q 3.4004651388280123 1.67025 3.425465138828012 1.659 Q 3.450465138828012 1.64775 3.4764651388280123 1.64775 Q 3.505965138828012 1.64775 3.528465138828012 1.66225 Q 3.5509651388280123 1.67675 3.5629651388280124 1.7005000000000001 Q 3.5749651388280124 1.72425 3.5749651388280124 1.75075 Q 3.5749651388280124 1.78125 3.560215138828012 1.80475 Q 3.5454651388280123 1.8282500000000002 3.520965138828012 1.841 Q 3.4964651388280124 1.85375 3.467465138828012 1.85375 Q 3.4379651388280124 1.85375 3.4154651388280124 1.8395000000000001 M 3.5204651388280124 1.82475 Q 3.533965138828012 1.80525 3.533965138828012 1.76625 Q 3.533965138828012 1.7337500000000001 3.524215138828012 1.709 Q 3.514465138828012 1.68425 3.4974651388280122 1.671 Q 3.4804651388280123 1.65775 3.459465138828012 1.65775 Q 3.4349651388280122 1.65775 3.421715138828012 1.6765 Q 3.4084651388280123 1.6952500000000001 3.4084651388280123 1.7317500000000001 Q 3.4084651388280123 1.76325 3.4179651388280123 1.7890000000000001 Q 3.427465138828012 1.81475 3.444215138828012 1.8295000000000001 Q 3.460965138828012 1.8442500000000002 3.481965138828012 1.8442500000000002 Q 3.5069651388280123 1.8442500000000002 3.5204651388280124 1.82475 M 3.8442124532811373 1.8442500000000002 Q 3.8442124532811373 1.84725 3.842712453281137 1.84725 Q 3.830712453281137 1.84725 3.8232124532811373 1.8467500000000001 L 3.795712453281137 1.8462500000000002 L 3.768212453281137 1.8467500000000001 Q 3.7607124532811373 1.84725 3.7487124532811373 1.84725 Q 3.7472124532811373 1.84725 3.7472124532811373 1.8442500000000002 Q 3.7472124532811373 1.84125 3.7487124532811373 1.84125 Q 3.766712453281137 1.84125 3.772462453281137 1.8345 Q 3.778212453281137 1.82775 3.778212453281137 1.80675 L 3.778212453281137 1.72875 Q 3.778212453281137 1.69975 3.767712453281137 1.68625 Q 3.757212453281137 1.67275 3.7342124532811374 1.67275 Q 3.720212453281137 1.67275 3.705212453281137 1.67975 Q 3.6902124532811373 1.68675 3.6782124532811373 1.6992500000000001 L 3.6782124532811373 1.80675 Q 3.6782124532811373 1.82775 3.6839624532811373 1.8345 Q 3.689712453281137 1.84125 3.708212453281137 1.84125 Q 3.709712453281137 1.84125 3.709712453281137 1.8442500000000002 Q 3.709712453281137 1.84725 3.708212453281137 1.84725 Q 3.696212453281137 1.84725 3.6887124532811373 1.8467500000000001 L 3.661212453281137 1.8462500000000002 L 3.6332124532811374 1.8467500000000001 Q 3.6262124532811373 1.84725 3.6142124532811373 1.84725 Q 3.612712453281137 1.84725 3.612712453281137 1.8442500000000002 Q 3.612712453281137 1.84125 3.6142124532811373 1.84125 Q 3.632212453281137 1.84125 3.637962453281137 1.8345 Q 3.6437124532811374 1.82775 3.6437124532811374 1.80675 L 3.6437124532811374 1.70925 Q 3.6437124532811374 1.69275 3.639962453281137 1.6855 Q 3.636212453281137 1.67825 3.627212453281137 1.67825 Q 3.617712453281137 1.67825 3.600712453281137 1.6852500000000001 L 3.5997124532811373 1.6852500000000001 Q 3.5982124532811373 1.6852500000000001 3.5974624532811372 1.68275 Q 3.596712453281137 1.68025 3.5982124532811373 1.67975 L 3.660212453281137 1.65025 Q 3.661212453281137 1.64975 3.663212453281137 1.64975 Q 3.668212453281137 1.64975 3.672962453281137 1.661 Q 3.677712453281137 1.67225 3.6782124532811373 1.69025 Q 3.714712453281137 1.64775 3.754712453281137 1.64775 Q 3.7822124532811374 1.64775 3.7974624532811374 1.6640000000000001 Q 3.8127124532811374 1.68025 3.8127124532811374 1.70925 L 3.8127124532811374 1.80675 Q 3.8127124532811374 1.82775 3.8184624532811373 1.8345 Q 3.8242124532811372 1.84125 3.842712453281137 1.84125 Q 3.8442124532811373 1.84125 3.8442124532811373 1.8442500000000002 M 4.095472218906137 1.81675 Q 4.096972218906137 1.81675 4.097722218906137 1.81925 Q 4.098472218906137 1.82175 4.096972218906137 1.8222500000000001 L 4.035472218906137 1.85225 Q 4.034472218906137 1.8527500000000001 4.032972218906137 1.8527500000000001 Q 4.028972218906137 1.8527500000000001 4.024722218906137 1.84175 Q 4.0204722189061375 1.83075 4.019472218906137 1.81375 Q 4.001972218906137 1.83175 3.9839722189061373 1.8422500000000002 Q 3.965972218906137 1.8527500000000001 3.9439722189061373 1.8527500000000001 Q 3.912972218906137 1.8527500000000001 3.891972218906137 1.83 Q 3.8709722189061373 1.80725 3.8709722189061373 1.76625 Q 3.8709722189061373 1.73025 3.8877222189061373 1.7032500000000002 Q 3.9044722189061374 1.67625 3.930722218906137 1.6620000000000001 Q 3.956972218906137 1.64775 3.984472218906137 1.64775 Q 4.010972218906137 1.64775 4.032972218906137 1.66225 Q 4.0429722189061374 1.6572500000000001 4.048472218906137 1.64925 Q 4.048972218906137 1.6487500000000002 4.049972218906137 1.6487500000000002 Q 4.0509722189061375 1.6487500000000002 4.052222218906137 1.6495 Q 4.053472218906137 1.65025 4.053472218906137 1.65075 L 4.053472218906137 1.79375 Q 4.053472218906137 1.80975 4.057222218906137 1.81675 Q 4.060972218906137 1.82375 4.069972218906138 1.82375 Q 4.0764722189061375 1.82375 4.094472218906137 1.81725 L 4.095472218906137 1.81675 M 4.019472218906137 1.80525 L 4.019472218906137 1.7012500000000002 Q 4.019472218906137 1.68275 4.005472218906137 1.67025 Q 3.991472218906137 1.65775 3.9719722189061373 1.65775 Q 3.9439722189061373 1.65775 3.9269722189061373 1.68375 Q 3.9099722189061374 1.70975 3.9099722189061374 1.75075 Q 3.9099722189061374 1.7882500000000001 3.924222218906137 1.8105 Q 3.938472218906137 1.83275 3.963472218906137 1.83275 Q 3.989972218906137 1.83275 4.019472218906137 1.80525 M 4.117217336093637 1.8442500000000002 Q 4.117217336093637 1.84125 4.118217336093637 1.84125 Q 4.1367173360936365 1.84125 4.142467336093636 1.8345 Q 4.148217336093637 1.82775 4.148217336093637 1.80675 L 4.148717336093637 1.54975 Q 4.148717336093637 1.5317500000000002 4.145217336093637 1.524 Q 4.141717336093637 1.51625 4.133217336093637 1.51625 Q 4.124717336093637 1.51625 4.111717336093637 1.52275 L 4.110717336093637 1.52275 Q 4.109217336093637 1.52275 4.108217336093637 1.52025 Q 4.107217336093637 1.51775 4.108717336093637 1.51725 L 4.175717336093637 1.4852500000000002 L 4.177717336093637 1.48475 Q 4.179717336093637 1.48475 4.181717336093636 1.48625 Q 4.183717336093637 1.4877500000000001 4.183717336093637 1.4897500000000001 L 4.183717336093637 1.80675 Q 4.183717336093637 1.82775 4.189467336093637 1.8345 Q 4.195217336093637 1.84125 4.213217336093637 1.84125 Q 4.2152173360936365 1.84125 4.2152173360936365 1.8442500000000002 Q 4.2152173360936365 1.84725 4.213217336093637 1.84725 Q 4.201717336093637 1.84725 4.194717336093637 1.8467500000000001 L 4.165717336093637 1.8462500000000002 L 4.137717336093637 1.8467500000000001 Q 4.130717336093637 1.84725 4.118217336093637 1.84725 Q 4.117217336093637 1.84725 4.117217336093637 1.8442500000000002 M 4.280710500156137 1.58775 Q 4.273960500156137 1.58125 4.273960500156137 1.56975 Q 4.273960500156137 1.55875 4.280710500156137 1.5525 Q 4.287460500156137 1.5462500000000001 4.298960500156137 1.5462500000000001 Q 4.309960500156137 1.5462500000000001 4.316210500156137 1.5525 Q 4.3224605001561365 1.55875 4.3224605001561365 1.56975 Q 4.3224605001561365 1.58125 4.316210500156137 1.58775 Q 4.309960500156137 1.5942500000000002 4.298960500156137 1.5942500000000002 Q 4.287460500156137 1.5942500000000002 4.280710500156137 1.58775 M 4.2534605001561365 1.8442500000000002 Q 4.2534605001561365 1.84125 4.254960500156137 1.84125 Q 4.272960500156137 1.84125 4.278960500156137 1.8345 Q 4.284960500156137 1.82775 4.284960500156137 1.80675 L 4.284960500156137 1.71475 Q 4.284960500156137 1.69675 4.281460500156137 1.689 Q 4.277960500156137 1.6812500000000001 4.268960500156137 1.6812500000000001 Q 4.260460500156137 1.6812500000000001 4.247460500156137 1.68775 L 4.246960500156137 1.68775 Q 4.244960500156137 1.68775 4.2439605001561365 1.685 Q 4.242960500156137 1.68225 4.244960500156137 1.68175 L 4.312960500156136 1.65025 L 4.314960500156137 1.64975 Q 4.316460500156137 1.64975 4.318210500156137 1.65125 Q 4.319960500156137 1.6527500000000002 4.319960500156137 1.65475 Q 4.319960500156137 1.65825 4.319460500156137 1.67475 Q 4.318960500156137 1.6912500000000001 4.318960500156137 1.71375 L 4.318960500156137 1.80675 Q 4.318960500156137 1.82775 4.324710500156137 1.8345 Q 4.3304605001561365 1.84125 4.348960500156137 1.84125 Q 4.350460500156137 1.84125 4.350460500156137 1.8442500000000002 Q 4.350460500156137 1.84725 4.348960500156137 1.84725 Q 4.336960500156136 1.84725 4.329460500156137 1.8467500000000001 L 4.301960500156137 1.8462500000000002 L 4.274460500156136 1.8467500000000001 Q 4.266960500156137 1.84725 4.254960500156137 1.84725 Q 4.2534605001561365 1.84725 4.2534605001561365 1.8442500000000002 M 4.502720265781137 1.66425 Q 4.503720265781137 1.66275 4.502970265781137 1.66175 Q 4.502220265781137 1.6607500000000002 4.500220265781137 1.6607500000000002 Q 4.448720265781136 1.6607500000000002 4.424220265781137 1.67075 Q 4.399720265781137 1.68075 4.391220265781137 1.70825 Q 4.391220265781137 1.70925 4.3892202657811366 1.70925 Q 4.3877202657811365 1.70925 4.386470265781137 1.7085000000000001 Q 4.385220265781137 1.70775 4.385720265781137 1.7072500000000002 L 4.4037202657811365 1.63825 Q 4.404220265781137 1.63725 4.407220265781137 1.6375000000000002 Q 4.4102202657811365 1.63775 4.409720265781137 1.6387500000000002 Q 4.409220265781137 1.6407500000000002 4.409220265781137 1.64375 Q 4.409220265781137 1.64975 4.414720265781137 1.6520000000000001 Q 4.420220265781137 1.65425 4.433720265781137 1.65425 L 4.542720265781137 1.65425 Q 4.5447202657811365 1.65425 4.545970265781137 1.65625 Q 4.547220265781137 1.65825 4.546720265781137 1.66025 L 4.429720265781137 1.83575 Q 4.428220265781137 1.83925 4.432220265781137 1.83925 Q 4.475220265781137 1.83925 4.496970265781137 1.83525 Q 4.518720265781137 1.83125 4.5294702657811365 1.8205 Q 4.540220265781137 1.80975 4.546720265781137 1.78725 Q 4.547220265781137 1.7862500000000001 4.549720265781136 1.7862500000000001 Q 4.552220265781137 1.7862500000000001 4.552220265781137 1.78725 L 4.5512202657811365 1.84175 Q 4.5512202657811365 1.84375 4.549970265781137 1.8455000000000001 Q 4.548720265781137 1.84725 4.546720265781137 1.84725 L 4.3892202657811366 1.84725 Q 4.387220265781137 1.84725 4.385970265781137 1.84525 Q 4.384720265781137 1.84325 4.385720265781137 1.84125 L 4.502720265781137 1.66425 M 4.754984914218637 1.81775 Q 4.756484914218637 1.81775 4.757734914218637 1.8195000000000001 Q 4.758984914218637 1.82125 4.757984914218637 1.82275 Q 4.740484914218637 1.83875 4.722234914218637 1.846 Q 4.703984914218637 1.85325 4.682984914218637 1.85325 Q 4.652984914218637 1.85325 4.631234914218637 1.84 Q 4.609484914218637 1.82675 4.5982349142186365 1.80475 Q 4.586984914218637 1.78275 4.586984914218637 1.75725 Q 4.586984914218637 1.7277500000000001 4.601234914218637 1.703 Q 4.615484914218637 1.67825 4.640734914218637 1.6640000000000001 Q 4.665984914218637 1.64975 4.696484914218637 1.64975 Q 4.724484914218637 1.64975 4.7399849142186365 1.663 Q 4.755484914218637 1.67625 4.755484914218637 1.6992500000000001 Q 4.755484914218637 1.71175 4.749984914218637 1.71175 L 4.725984914218637 1.71175 L 4.627484914218637 1.71275 Q 4.625484914218637 1.72275 4.625484914218637 1.73725 Q 4.625484914218637 1.78025 4.6462349142186365 1.80675 Q 4.666984914218637 1.83325 4.703484914218637 1.83325 Q 4.732484914218637 1.83325 4.7544849142186365 1.81775 L 4.754984914218637 1.81775 M 4.647484914218637 1.6715 Q 4.634484914218637 1.6832500000000001 4.628984914218637 1.70475 L 4.714984914218637 1.70275 Q 4.7144849142186365 1.68275 4.704984914218637 1.6712500000000001 Q 4.695484914218637 1.65975 4.678984914218637 1.65975 Q 4.660484914218637 1.65975 4.647484914218637 1.6715 M 5.025749562656137 1.81725 Q 5.027249562656137 1.81725 5.0282495626561365 1.81975 Q 5.029249562656137 1.8222500000000001 5.027749562656137 1.82325 L 4.968249562656137 1.85175 Q 4.965249562656137 1.8527500000000001 4.964749562656137 1.8527500000000001 Q 4.958749562656137 1.8527500000000001 4.954249562656137 1.8422500000000002 Q 4.9497495626561365 1.83175 4.949249562656137 1.81325 Q 4.931249562656137 1.83175 4.911749562656137 1.84275 Q 4.892249562656137 1.85375 4.868249562656137 1.85375 Q 4.8472495626561365 1.85375 4.829249562656137 1.842 Q 4.811249562656137 1.8302500000000002 4.8007495626561365 1.8082500000000001 Q 4.790249562656137 1.7862500000000001 4.790249562656137 1.7577500000000001 Q 4.790249562656137 1.72125 4.807749562656137 1.6965000000000001 Q 4.825249562656137 1.67175 4.851499562656137 1.65975 Q 4.877749562656137 1.64775 4.904249562656137 1.64775 Q 4.927249562656137 1.64775 4.949249562656137 1.65825 L 4.949249562656137 1.5502500000000001 Q 4.949249562656137 1.5317500000000002 4.945749562656137 1.524 Q 4.942249562656137 1.51625 4.933249562656137 1.51625 Q 4.926749562656137 1.51625 4.911749562656137 1.52325 L 4.9112495626561365 1.52325 Q 4.909249562656137 1.52325 4.908249562656137 1.52075 Q 4.907249562656137 1.51825 4.908749562656137 1.51725 L 4.975249562656137 1.4852500000000002 Q 4.976249562656137 1.48475 4.977749562656137 1.48475 Q 4.979249562656137 1.48475 4.981499562656137 1.48625 Q 4.983749562656137 1.4877500000000001 4.983749562656137 1.4897500000000001 L 4.983749562656137 1.79125 Q 4.983749562656137 1.80875 4.9874995626561365 1.8165 Q 4.991249562656137 1.8242500000000001 5.000249562656137 1.8242500000000001 Q 5.011749562656137 1.8242500000000001 5.024749562656137 1.81775 L 5.025749562656137 1.81725 M 4.921249562656137 1.826 Q 4.935249562656137 1.8182500000000001 4.949249562656137 1.8042500000000001 L 4.949249562656137 1.68975 Q 4.938749562656137 1.67475 4.9249995626561365 1.66675 Q 4.9112495626561365 1.65875 4.892749562656137 1.65875 Q 4.862749562656137 1.65875 4.845749562656137 1.67975 Q 4.828749562656137 1.70075 4.828749562656137 1.74225 Q 4.828749562656137 1.7842500000000001 4.845999562656137 1.8090000000000002 Q 4.8632495626561365 1.83375 4.890249562656137 1.83375 Q 4.907249562656137 1.83375 4.921249562656137 1.826 M 5.346015920078012 1.65875 Q 5.363765920078012 1.66975 5.374265920078012 1.69075 Q 5.384765920078012 1.71175 5.384765920078012 1.7397500000000001 Q 5.384765920078012 1.77825 5.368015920078012 1.804 Q 5.351265920078012 1.82975 5.326265920078012 1.84175 Q 5.301265920078012 1.85375 5.276265920078012 1.85375 Q 5.261765920078012 1.85375 5.250515920078012 1.8515000000000001 Q 5.239265920078012 1.84925 5.226765920078012 1.84375 L 5.226765920078012 1.94425 Q 5.226765920078012 1.9592500000000002 5.230265920078012 1.96625 Q 5.233765920078012 1.9732500000000002 5.243765920078012 1.976 Q 5.253765920078012 1.97875 5.274765920078012 1.97875 Q 5.276265920078012 1.97875 5.276265920078012 1.9817500000000001 Q 5.276265920078012 1.98475 5.274765920078012 1.98475 Q 5.257265920078012 1.98475 5.247265920078012 1.98425 L 5.209765920078012 1.9837500000000001 L 5.181765920078012 1.98425 Q 5.174765920078012 1.98475 5.162265920078012 1.98475 Q 5.160765920078012 1.98475 5.160765920078012 1.9817500000000001 Q 5.160765920078012 1.97875 5.162265920078012 1.97875 Q 5.175265920078012 1.97875 5.181765920078012 1.976 Q 5.188265920078012 1.9732500000000002 5.1905159200780115 1.96625 Q 5.192765920078012 1.9592500000000002 5.192765920078012 1.94425 L 5.192765920078012 1.71025 Q 5.192765920078012 1.6932500000000001 5.188765920078012 1.6855 Q 5.184765920078012 1.67775 5.175265920078012 1.67775 Q 5.165765920078012 1.67775 5.149765920078012 1.6852500000000001 L 5.149265920078012 1.6852500000000001 Q 5.147265920078012 1.6852500000000001 5.146015920078012 1.68275 Q 5.144765920078012 1.68025 5.146765920078012 1.67975 L 5.207265920078012 1.65075 L 5.210265920078012 1.64975 Q 5.216265920078012 1.64975 5.221015920078012 1.65975 Q 5.225765920078012 1.66975 5.226765920078012 1.6872500000000001 Q 5.266265920078012 1.64775 5.307265920078012 1.64775 Q 5.328265920078012 1.64775 5.346015920078012 1.65875 M 5.331265920078012 1.82 Q 5.3467659200780115 1.79725 5.3467659200780115 1.75525 Q 5.3467659200780115 1.71425 5.328765920078012 1.6920000000000002 Q 5.310765920078012 1.66975 5.282765920078012 1.66975 Q 5.266765920078012 1.66975 5.253515920078012 1.67675 Q 5.240265920078012 1.68375 5.226765920078012 1.69675 L 5.226765920078012 1.81325 Q 5.239765920078012 1.82775 5.254265920078012 1.83525 Q 5.268765920078012 1.84275 5.289765920078012 1.84275 Q 5.315765920078012 1.84275 5.331265920078012 1.82 M 5.645509084140512 1.81675 Q 5.647009084140512 1.81675 5.647759084140512 1.81925 Q 5.648509084140512 1.82175 5.647009084140512 1.8222500000000001 L 5.585509084140512 1.85225 Q 5.584509084140512 1.8527500000000001 5.583009084140512 1.8527500000000001 Q 5.579009084140512 1.8527500000000001 5.574759084140512 1.84175 Q 5.570509084140512 1.83075 5.569509084140512 1.81375 Q 5.552009084140512 1.83175 5.534009084140512 1.8422500000000002 Q 5.516009084140512 1.8527500000000001 5.494009084140512 1.8527500000000001 Q 5.463009084140512 1.8527500000000001 5.442009084140512 1.83 Q 5.421009084140512 1.80725 5.421009084140512 1.76625 Q 5.421009084140512 1.73025 5.437759084140512 1.7032500000000002 Q 5.454509084140512 1.67625 5.480759084140512 1.6620000000000001 Q 5.507009084140512 1.64775 5.534509084140512 1.64775 Q 5.561009084140512 1.64775 5.583009084140512 1.66225 Q 5.593009084140512 1.6572500000000001 5.598509084140512 1.64925 Q 5.599009084140512 1.6487500000000002 5.600009084140512 1.6487500000000002 Q 5.601009084140512 1.6487500000000002 5.602259084140512 1.6495 Q 5.603509084140512 1.65025 5.603509084140512 1.65075 L 5.603509084140512 1.79375 Q 5.603509084140512 1.80975 5.607259084140512 1.81675 Q 5.6110090841405125 1.82375 5.620009084140512 1.82375 Q 5.626509084140512 1.82375 5.644509084140512 1.81725 L 5.645509084140512 1.81675 M 5.569509084140512 1.80525 L 5.569509084140512 1.7012500000000002 Q 5.569509084140512 1.68275 5.555509084140512 1.67025 Q 5.541509084140512 1.65775 5.522009084140512 1.65775 Q 5.494009084140512 1.65775 5.477009084140512 1.68375 Q 5.460009084140512 1.70975 5.460009084140512 1.75075 Q 5.460009084140512 1.7882500000000001 5.474259084140512 1.8105 Q 5.488509084140512 1.83275 5.513509084140512 1.83275 Q 5.540009084140512 1.83275 5.569509084140512 1.80525 M 5.845754201328012 1.6487500000000002 Q 5.846754201328012 1.6487500000000002 5.8480042013280125 1.6495 Q 5.849254201328012 1.65025 5.849254201328012 1.65075 L 5.849254201328012 1.88225 Q 5.849254201328012 1.92975 5.822254201328012 1.95875 Q 5.795254201328012 1.9877500000000001 5.747254201328012 1.9877500000000001 Q 5.716254201328012 1.9877500000000001 5.696754201328012 1.9775 Q 5.677254201328012 1.96725 5.677254201328012 1.95025 Q 5.677254201328012 1.94025 5.682754201328012 1.9355 Q 5.688254201328012 1.93075 5.695754201328012 1.93075 Q 5.704754201328012 1.93075 5.710254201328012 1.9355 Q 5.7157542013280125 1.94025 5.721754201328012 1.95025 Q 5.730754201328012 1.96375 5.739754201328012 1.9705000000000001 Q 5.748754201328012 1.9772500000000002 5.766754201328012 1.9772500000000002 Q 5.789254201328012 1.9772500000000002 5.802254201328012 1.9595 Q 5.815254201328012 1.94175 5.815254201328012 1.89425 L 5.815254201328012 1.81375 Q 5.797754201328012 1.83175 5.779504201328012 1.8422500000000002 Q 5.761254201328012 1.8527500000000001 5.739754201328012 1.8527500000000001 Q 5.708754201328012 1.8527500000000001 5.687754201328012 1.83 Q 5.666754201328012 1.80725 5.666754201328012 1.76625 Q 5.666754201328012 1.73025 5.683504201328012 1.7032500000000002 Q 5.700254201328012 1.67625 5.726504201328012 1.6620000000000001 Q 5.752754201328012 1.64775 5.780254201328012 1.64775 Q 5.806754201328012 1.64775 5.828754201328012 1.66225 Q 5.838754201328012 1.6572500000000001 5.844254201328012 1.64925 Q 5.844754201328012 1.6487500000000002 5.845754201328012 1.6487500000000002 M 5.815254201328012 1.80525 L 5.815254201328012 1.7012500000000002 Q 5.815254201328012 1.68275 5.801254201328012 1.67025 Q 5.787254201328012 1.65775 5.767754201328012 1.65775 Q 5.739754201328012 1.65775 5.722754201328012 1.68375 Q 5.705754201328012 1.70975 5.705754201328012 1.75075 Q 5.705754201328012 1.7882500000000001 5.720004201328012 1.8105 Q 5.734254201328012 1.83275 5.759254201328012 1.83275 Q 5.785754201328012 1.83275 5.815254201328012 1.80525 M 6.068994191562387 1.81775 Q 6.070494191562387 1.81775 6.071744191562387 1.8195000000000001 Q 6.072994191562387 1.82125 6.071994191562387 1.82275 Q 6.054494191562387 1.83875 6.036244191562387 1.846 Q 6.017994191562387 1.85325 5.996994191562387 1.85325 Q 5.966994191562387 1.85325 5.945244191562387 1.84 Q 5.923494191562387 1.82675 5.912244191562387 1.80475 Q 5.900994191562387 1.78275 5.900994191562387 1.75725 Q 5.900994191562387 1.7277500000000001 5.915244191562387 1.703 Q 5.929494191562387 1.67825 5.954744191562387 1.6640000000000001 Q 5.979994191562387 1.64975 6.010494191562387 1.64975 Q 6.038494191562387 1.64975 6.053994191562387 1.663 Q 6.069494191562387 1.67625 6.069494191562387 1.6992500000000001 Q 6.069494191562387 1.71175 6.063994191562387 1.71175 L 6.039994191562387 1.71175 L 5.941494191562387 1.71275 Q 5.939494191562387 1.72275 5.939494191562387 1.73725 Q 5.939494191562387 1.78025 5.960244191562387 1.80675 Q 5.980994191562387 1.83325 6.017494191562387 1.83325 Q 6.046494191562387 1.83325 6.068494191562387 1.81775 L 6.068994191562387 1.81775 M 5.961494191562387 1.6715 Q 5.9484941915623875 1.6832500000000001 5.942994191562387 1.70475 L 6.028994191562387 1.70275 Q 6.028494191562387 1.68275 6.0189941915623875 1.6712500000000001 Q 6.009494191562387 1.65975 5.992994191562387 1.65975 Q 5.974494191562387 1.65975 5.961494191562387 1.6715 M 6.1539995626561375 1.70975 Q 6.165249562656137 1.72025 6.186249562656137 1.73125 Q 6.204249562656137 1.74075 6.213999562656137 1.7475 Q 6.223749562656137 1.75425 6.230749562656137 1.76475 Q 6.237749562656137 1.77525 6.237749562656137 1.79075 Q 6.237749562656137 1.8162500000000001 6.218499562656137 1.8345 Q 6.199249562656137 1.8527500000000001 6.165749562656137 1.8527500000000001 Q 6.139749562656137 1.8527500000000001 6.116749562656137 1.8382500000000002 Q 6.113749562656137 1.83525 6.113749562656137 1.8322500000000002 L 6.112749562656137 1.78975 Q 6.112749562656137 1.7882500000000001 6.1154995626561375 1.788 Q 6.118249562656137 1.78775 6.118749562656137 1.78925 Q 6.127749562656137 1.8142500000000001 6.143999562656137 1.82875 Q 6.160249562656137 1.84325 6.180249562656137 1.84325 Q 6.194249562656137 1.84325 6.2019995626561375 1.8362500000000002 Q 6.209749562656137 1.82925 6.209749562656137 1.81575 Q 6.209749562656137 1.80175 6.203749562656137 1.792 Q 6.197749562656137 1.7822500000000001 6.188999562656137 1.7765 Q 6.180249562656137 1.77075 6.165249562656137 1.76275 Q 6.148749562656137 1.75475 6.138999562656137 1.74825 Q 6.129249562656137 1.7417500000000001 6.122499562656137 1.73125 Q 6.115749562656137 1.72075 6.115749562656137 1.70475 Q 6.115749562656137 1.67675 6.136249562656137 1.6625 Q 6.156749562656137 1.64825 6.1852495626561375 1.64825 Q 6.204749562656137 1.64825 6.223249562656137 1.65575 Q 6.227749562656137 1.6572500000000001 6.227749562656137 1.6612500000000001 Q 6.227749562656137 1.67225 6.227249562656137 1.67825 L 6.226749562656137 1.70075 Q 6.226749562656137 1.70175 6.223749562656137 1.70175 Q 6.220749562656137 1.70175 6.220749562656137 1.70075 Q 6.220749562656137 1.69075 6.212749562656137 1.68075 Q 6.204749562656137 1.67075 6.192499562656137 1.6645 Q 6.180249562656137 1.65825 6.167749562656137 1.65825 Q 6.1562495626561375 1.65825 6.149499562656137 1.6640000000000001 Q 6.142749562656137 1.66975 6.142749562656137 1.68275 Q 6.142749562656137 1.6992500000000001 6.1539995626561375 1.70975 M 6.292255910312387 1.846 Q 6.285505910312387 1.83925 6.285505910312387 1.8282500000000002 Q 6.285505910312387 1.81725 6.292005910312387 1.8110000000000002 Q 6.298505910312387 1.80475 6.3100059103123876 1.80475 Q 6.321505910312387 1.80475 6.327755910312387 1.8110000000000002 Q 6.334005910312387 1.81725 6.334005910312387 1.8282500000000002 Q 6.334005910312387 1.83975 6.327755910312387 1.8462500000000002 Q 6.321505910312387 1.8527500000000001 6.3100059103123876 1.8527500000000001 Q 6.299005910312387 1.8527500000000001 6.292255910312387 1.846" fill="#e9e9e5" fill-rule="nonzero"></path></g></g><defs><clipPath id="SvgjsClipPath79312"><path d=" M 2.21398095703125 -0.24774999999999997 h 1.4664263714060253 v 1.2325 h -1.4664263714060253 Z"></path></clipPath><clipPath id="SvgjsClipPath79307a8fff5df-4d4f-4c41-bf12-6d597af57344"><path d=" M 2.21398095703125 -0.24774999999999997 L 3.6804073284372754 -0.24774999999999997 L 3.6804073284372754 0.98475 L 2.21398095703125 0.98475 Z"></path></clipPath></defs></svg>